<?xml version="1.0" standalone="no"?>
<!DOCTYPE svg PUBLIC "-//W3C//DTD SVG 1.1//EN" "http://www.w3.org/Graphics/SVG/1.1/DTD/svg11.dtd" >
<svg>
<metadata>
Created by FontForge 20110222 at Wed Feb 18 03:22:14 2015
 By deploy user
Copyright (c) Yosep Lee and yleefonts, 2014. All rights reserved.
</metadata>
<defs>
<font id="yleeMortalHeart,ImmortalMemoryforMac" horiz-adv-x="1441" >
  <font-face 
    font-family="ylee MHIM for Mac"
    font-weight="400"
    font-stretch="normal"
    units-per-em="2048"
    panose-1="2 0 5 0 0 0 0 0 0 0"
    ascent="1638"
    descent="-410"
    x-height="545"
    cap-height="1388"
    bbox="-438.5 -1147 2006 1774"
    underline-thickness="150"
    underline-position="-142"
    unicode-range="U+0020-2665"
  />
<missing-glyph horiz-adv-x="500" 
 />
    <glyph glyph-name=".notdef" horiz-adv-x="500" 
 />
    <glyph glyph-name=".null" horiz-adv-x="0" 
 />
    <glyph glyph-name="nonmarkingreturn" horiz-adv-x="500" 
 />
    <glyph glyph-name="space" unicode=" " horiz-adv-x="400" 
 />
    <glyph glyph-name="space" unicode="&#xa0;" horiz-adv-x="400" 
 />
    <glyph glyph-name="exclam" unicode="!" horiz-adv-x="600" 
d="M411 1405q34 -14 50 -30l20 -28q-190 -760 -204 -1175l-3 -61l-3 -38h-23q-26 50 -31 118l-4 65q17 439 198 1149zM279 -178q-17 -38 -48 -57h-24q-26 8 -35 50l1 33q26 83 81 68q36 -24 25 -94z" />
    <glyph glyph-name="quotedbl" unicode="&#x22;" horiz-adv-x="520" 
d="M259 1241q-33 -89 -64 -146q-19 -49 -74 -79l20 90q13 32 29 98l13 47q18 85 61 84q36 -24 15 -94zM429 1241q-33 -89 -64 -146q-19 -49 -74 -79l20 90q13 32 29 98l13 47q18 85 61 84q36 -24 15 -94z" />
    <glyph glyph-name="numbersign" unicode="#" horiz-adv-x="1000" 
d="M314 477q17 106 40 239l-141 -24l-34 13l46 51q74 14 140 26q19 108 42 233l8 26l17 17q9 0 41 -46l-37 -218q125 23 217 38q16 87 33 183l8 26l17 17q9 0 41 -46l-29 -168q73 11 117 17l22 -11l-31 -54l-119 -20l-41 -236q82 13 130 19l22 -11l-31 -54l-132 -22
l-48 -280l-23 -28q-17 0 -34 60q12 93 35 236l-217 -37l-40 -231l-23 -28q-17 0 -34 60q10 77 27 188l-129 -22l-34 13l46 51q67 12 128 23zM424 728l-40 -238q124 22 217 38q17 106 40 236z" />
    <glyph glyph-name="dollar" unicode="$" horiz-adv-x="760" 
d="M287 141q-21 8 -39 19l-15 11q-79 64 -91 128v11q8 29 20 29l11 -1l46 -62l20 -23q29 -26 59 -41q25 166 54 345l-27 30q-64 89 -73 172l-2 34q7 120 70 164l16 11q36 22 89 28l16 90l8 26l17 17q9 0 41 -46l-15 -93q92 -27 128 -144v-33q-4 -35 -39 -57q-23 71 -45 108
l-12 15q-21 26 -44 38l-55 -330l21 -24q116 -107 116 -258v-28q-21 -116 -145 -152l-36 -3q-17 1 -32 4l-22 -133l-23 -28q-17 0 -34 60q8 57 17 116zM413 921l-18 -4q-60 -13 -71 -130l4 -36q16 -49 41 -91q21 127 44 261zM359 190q15 -3 30 -3l20 2q77 26 85 92v25
q0 95 -59 155l-16 22q-5 5 -9 10z" />
    <glyph glyph-name="percent" unicode="%" horiz-adv-x="1052" 
d="M924 1051l24 6q7 -4 11 -54l-836 -1027l-45 -14q-14 9 8 70q294 374 817 1002zM331 1010q132 -23 132 -169q-41 -129 -154 -134q-103 38 -102 155q9 109 124 148zM272 898l-8 -26q8 -97 59 -103q79 22 79 97q-12 72 -69 74q-35 -1 -61 -42zM764 389q129 0 142 -146
q-27 -154 -140 -154q-103 12 -127 136v18q21 131 125 146zM763 327q-62 -43 -62 -82v-17q0 -43 44 -82h25q60 3 75 91q-11 80 -82 90z" />
    <glyph glyph-name="ampersand" unicode="&#x26;" horiz-adv-x="750" 
d="M439 976q124 -4 164 -116l3 -21l-3 -27q-19 -33 -35 -44l-11 16l-4 12q-19 100 -109 103h-22q-108 -11 -115 -117v-15q7 -57 108 -143l28 -22l-27 -10q-174 -68 -194 -196v-16q9 -113 132 -153l15 -1q74 4 157 30l34 15l12 -1l-15 -38l-15 -19q-43 -37 -162 -50l-13 -1
q-190 29 -216 216v15q24 154 171 225l-13 12q-69 65 -73 134v21q12 156 180 190zM492 1206l20 -2q17 -4 30 -48l-3 -33q-12 -65 -39 -74l-9 2q-17 17 -20 47q2 13 21 108zM303 -67l-21 2q-16 4 -30 48l3 33q13 65 40 74l9 -2q17 -17 19 -47q-1 -14 -20 -108z" />
    <glyph glyph-name="quotesingle" unicode="'" horiz-adv-x="350" 
d="M245 788q-30 -79 -50 -101q-29 -49 -84 -79l30 90q13 32 33 109q18 85 61 84q36 -24 10 -103z" />
    <glyph glyph-name="parenleft" unicode="(" horiz-adv-x="550" 
d="M351 -99q-181 214 -197 561l6 143q48 291 215 553h19q-141 -347 -163 -565l-1 -113q8 -260 121 -559v-20z" />
    <glyph glyph-name="parenright" unicode=")" horiz-adv-x="550" 
d="M198 1158q181 -214 196 -561l-6 -143q-48 -291 -214 -553h-20q141 347 163 565l2 113q-8 260 -121 559v20z" />
    <glyph glyph-name="asterisk" unicode="*" horiz-adv-x="1200" 
d="M702 932l-129 -194l125 -32zM535 688l-88 -138l92 -113l159 67l1 140zM289 749q61 -61 124 -150l65 103q-160 38 -189 47zM414 503q-46 -84 -114 -185l188 96zM704 240l-4 206l-128 -51q62 -71 132 -155zM975 588q-138 28 -217 47l1 -109zM682 1011l46 62q18 -1 35 -32
l1 -73l-6 -274q66 -12 273 -62l33 -22l23 -25q-39 -25 -85 -42q-143 -38 -243 -77l-3 -241q0 -57 -7 -85l-33 9q-61 45 -194 220q-87 -39 -232 -108l-49 -16l-10 9q-3 26 8 59l137 236q-185 214 -185 268q19 11 44 11q239 -65 276 -75q50 62 171 258z" />
    <glyph glyph-name="plus" unicode="+" horiz-adv-x="800" 
d="M381 796l16 29q32 -21 38 -66l-2 -195q119 -1 191 -7l20 -13l1 -14q-16 -14 -34 -19h-178l-4 -198q-1 -102 -23 -126q-31 14 -31 95v229h-10q-180 -3 -196 -3l-16 28l22 20q50 7 200 8q1 79 6 232z" />
    <glyph glyph-name="comma" unicode="," horiz-adv-x="350" 
d="M220 10q-14 -72 -63 -129q-51 -54 -106 -84l36 72q23 58 35 146l1 33q26 83 81 68q36 -24 16 -106z" />
    <glyph glyph-name="hyphen" unicode="-" horiz-adv-x="560" 
d="M343 564q69 -1 141 -7l20 -13l1 -16q-16 -16 -34 -21h-196q-180 -3 -196 -3l-16 30l22 22q50 7 200 8h58z" />
    <glyph glyph-name="hyphen" unicode="&#xad;" horiz-adv-x="560" 
d="M343 564q69 -1 141 -7l20 -13l1 -16q-16 -16 -34 -21h-196q-180 -3 -196 -3l-16 30l22 22q50 7 200 8h58z" />
    <glyph glyph-name="period" unicode="." horiz-adv-x="350" 
d="M229 22q-17 -38 -48 -57h-24q-26 8 -35 50l1 33q26 83 81 68q36 -24 25 -94z" />
    <glyph glyph-name="slash" unicode="/" horiz-adv-x="700" 
d="M708 1157l22 11q8 -3 18 -52l-622 -1169l-31 -20q-16 6 -13 68q217 424 609 1141z" />
    <glyph glyph-name="zero" unicode="0" horiz-adv-x="570" 
d="M310 1098q139 -41 189 -211l7 -29q27 -109 29 -253v-33q-19 -318 -164 -536l-15 -12q-59 -50 -143 -52l-34 3q-123 26 -159 287v32q0 445 225 793l16 8zM261 1003q-175 -337 -173 -706l2 -38q29 -186 102 -220l19 -5l26 4q123 17 209 354q27 107 25 230l-3 70
q-25 256 -126 317q-26 5 -47 30l-17 -16z" />
    <glyph glyph-name="one" unicode="1" horiz-adv-x="320" 
d="M218 1091l17 17q9 0 41 -46l-180 -1090l-23 -28q-17 0 -34 60q68 471 171 1061z" />
    <glyph glyph-name="two" unicode="2" horiz-adv-x="600" 
d="M290 1070q115 12 184 -63l7 -10q49 -83 45 -196l-2 -16q-67 -379 -378 -712q139 20 320 12l47 -14l44 -27q-21 -17 -56 -17h-15q-102 10 -279 -7l-19 -2q-59 -7 -104 -17q-36 13 -48 42l62 64q294 330 364 680l1 15q-2 182 -129 206h-21q-120 -28 -140 -151v-19
q0 -61 31 -109l14 -22q-96 22 -105 137v16q13 153 164 207z" />
    <glyph glyph-name="three" unicode="3" horiz-adv-x="600" 
d="M435 1109h13q104 -3 125 -72l3 -14l-2 -13q-15 -109 -240 -367q144 -116 147 -259l-1 -27q-40 -287 -315 -388l-24 -4q-52 -13 -91 6v10q326 103 364 378l1 31q-1 103 -168 247l6 10q94 106 175 209l15 20q68 100 69 138l-1 15q-19 21 -61 23h-30q-120 -10 -246 -110
q-25 -16 -52 -17l14 46q111 123 299 138z" />
    <glyph glyph-name="four" unicode="4" horiz-adv-x="520" 
d="M368 864l9 63q-106 -137 -280 -362q83 -2 224 -7zM308 479l4 25l-82 3l-194 5l-6 13l-9 21l8 29q239 317 371 484l-3 33l12 -4q48 -3 48 -62l-74 -474q47 -5 89 -23l27 -14q-11 -9 -34 -14h-16l-74 1l-82 -522l-25 -48q-24 7 -31 38l-1 42z" />
    <glyph glyph-name="five" unicode="5" horiz-adv-x="570" 
d="M413 1078l39 1q57 0 79 -40l-39 -11q-115 -12 -274 -22l-53 -321q265 -23 321 -233v-21q-9 -252 -285 -428l-83 -34l-48 -10l-23 8q90 45 216 153l15 13q124 127 138 272l1 38l-11 39q-63 130 -269 139q-38 6 -42 30l12 56l52 304l-12 20q10 24 42 32q123 3 224 15z" />
    <glyph glyph-name="six" unicode="6" horiz-adv-x="570" 
d="M464 1087l42 9q-3 -36 -26 -90l-21 -22q-178 -192 -299 -521l8 7q49 36 117 41h23q181 -27 204 -250v-29q-33 -245 -238 -264h-18q-172 9 -205 239v28q0 36 6 55l-8 -11q-10 -16 -20 -35l-10 33l3 17q25 58 52 89q105 366 353 671zM109 230v-24q26 -159 140 -183h29
q132 19 177 207v27q-32 173 -144 197h-24q-71 -8 -145 -71l-11 -16q-23 -73 -22 -137z" />
    <glyph glyph-name="seven" unicode="7" horiz-adv-x="540" 
d="M445 1086l12 2q60 4 60 -62l-164 -1046l-25 -48q-24 7 -31 38l-1 42l155 999v9h-9q-160 -21 -289 -51q7 -112 14 -268l-7 -28l-33 32l-14 33q-11 115 -21 197q-6 22 -9 38q15 53 38 66q10 0 28 -9q228 40 296 56z" />
    <glyph glyph-name="eight" unicode="8" horiz-adv-x="570" 
d="M385 1100h18q134 -23 125 -137l-2 -13q-8 -83 -183 -312q156 -262 156 -422l-1 -26q-35 -201 -234 -235h-30q-189 2 -212 214l1 25q7 161 245 449q-97 142 -95 238l2 20q31 182 210 199zM236 914l-2 -21q-8 -59 77 -201q154 214 154 272l2 17q4 40 -58 59h-22
q-113 -9 -151 -126zM83 184v-16q21 -149 157 -161l21 2q142 38 176 186v27q-18 155 -135 364q-197 -230 -219 -402z" />
    <glyph glyph-name="nine" unicode="9" horiz-adv-x="540" 
d="M402 728q-108 -87 -195 -94l-24 1q-80 20 -102 112l-3 25q11 203 184 295l12 6q89 34 167 1l14 -9l-1 21q57 1 59 -60l-164 -1046l-25 -48q-24 7 -31 38l-1 42zM197 692h21q115 32 202 133l27 170q-64 44 -152 22l-15 -7q-118 -71 -142 -236l2 -19q22 -57 57 -63z" />
    <glyph glyph-name="colon" unicode=":" horiz-adv-x="400" 
d="M239 262q-7 -38 -28 -57h-24q-26 8 -35 50l1 33q26 83 71 68q26 -24 15 -94zM239 562q-7 -38 -28 -57h-24q-26 8 -35 50l1 33q26 83 71 68q26 -24 15 -94z" />
    <glyph glyph-name="semicolon" unicode=";" horiz-adv-x="400" 
d="M230 250q-14 -72 -43 -129q-51 -54 -106 -84l36 72q23 58 35 146l1 33q26 83 71 68q16 -24 6 -106zM239 562q-7 -38 -28 -57h-24q-26 8 -35 50l1 33q26 83 71 68q26 -24 15 -94z" />
    <glyph glyph-name="semicolon" unicode="&#x37e;" horiz-adv-x="400" 
d="M230 250q-14 -72 -43 -129q-51 -54 -106 -84l36 72q23 58 35 146l1 33q26 83 71 68q16 -24 6 -106zM239 562q-7 -38 -28 -57h-24q-26 8 -35 50l1 33q26 83 71 68q26 -24 15 -94z" />
    <glyph glyph-name="less" unicode="&#x3c;" horiz-adv-x="825" 
d="M615 1062l33 7l17 -39l-16 -24q-377 -374 -411 -411q111 -105 419 -414q17 -24 18 -49l-20 -11l-46 18q-78 79 -362 358q-89 81 -89 98q0 27 420 432z" />
    <glyph glyph-name="equal" unicode="=" horiz-adv-x="800" 
d="M380 644h93q76 -1 157 -6l22 -10l1 -13q-16 -13 -37 -18l-219 1q-203 -3 -220 -3l-18 25l25 18q51 5 196 6zM380 479h93q76 -1 157 -6l22 -10l1 -13q-16 -13 -37 -18l-219 1q-203 -3 -220 -3l-18 25l25 18q51 5 196 6z" />
    <glyph glyph-name="greater" unicode="&#x3e;" horiz-adv-x="825" 
d="M254 1027q421 -405 421 -432q0 -17 -90 -98q-284 -279 -362 -358l-45 -18l-20 11q1 25 17 49q308 309 419 414q-34 37 -411 411l-15 24l17 39l33 -7z" />
    <glyph glyph-name="question" unicode="?" horiz-adv-x="900" 
d="M516 1377l35 4q168 6 190 -168l-3 -32q-44 -173 -280 -583l-29 -53q-132 -319 -115 -466h-35q-24 81 -24 141q35 248 176 479l21 39q178 304 217 463v47q-16 47 -70 58l-52 3q-204 -35 -320 -252v-35q28 -43 98 -43q-23 -46 -70 -46l-35 1q-60 33 -66 100l5 49
q145 260 357 294zM329 -178q-17 -38 -48 -57h-24q-26 8 -35 50l1 33q26 83 81 68q36 -24 25 -94z" />
    <glyph glyph-name="at" unicode="@" 
d="M1217 1307q126 -134 174 -301q16 -61 19 -132q-9 -348 -226 -733l-23 -33q-194 -259 -476 -306l-90 -2q-263 -3 -406 185l-22 44q-67 142 -67 311q1 590 459 903l29 12q81 38 148 30q91 -5 130 -48l20 -37l-47 10q-51 20 -133 10l-23 -3q-178 -27 -394 -356
q-112 -216 -120 -487q-9 -310 176 -459l34 -20q118 -52 254 -38q494 46 683 788q25 93 29 201q-6 121 -34 195l-10 24q-64 154 -178 241l-13 9q-58 39 -209 60q-109 -9 -275 -33v12q79 70 284 81q193 -11 307 -128zM672 494q67 69 100.5 110t47.5 60q2 32 3.5 63t-2 66.5
t-28.5 40t-72 -29t-86.5 -83.5t-69.5 -94t-48 -86t-23 -72.5t0.5 -59t41 -19.5t136.5 104zM990 329l-26 -9q-57 0 -85.5 35t-42.5 112q-8 54 -12 110q-60 -74 -120 -132.5t-102 -85t-82.5 -32t-68 23t-19.5 112.5q18 106 83.5 201.5t124 149.5t120.5 75.5t94 -19.5
q26 -35 27 -90t-2 -123t6 -131t21 -97t33 -41l11 -4h16q20 1 40 9q17 7 48 22l-13 -38q-13 -19 -24 -28t-27 -20z" />
    <glyph glyph-name="A" unicode="A" horiz-adv-x="1420" 
d="M1057 389q-89 -15 -315 -89q-169 -295 -470 -686q-195 -203 -257 -204l188 206q364 501 443 654q-67 -27 -552 -213l-58 -6q-23 2 -71 5l-15 21q589 219 741 273q147 268 399 713q96 186 117 271l33 95q19 78 62 146h34q0 -18 9 -18l-55 -175l-49 -175
q-63 -352 -106 -742q63 11 161 12q52 -7 83 -38q-46 -1 -114 -11q-52 -6 -136 -21q-17 -254 -16 -376q7 -166 59 -267l44 -66l-61 23q-111 117 -114 356q2 166 16 312zM784 376q155 52 278 76q51 423 78 569z" />
    <glyph glyph-name="B" unicode="B" horiz-adv-x="1100" 
d="M803 1480h45q33 0 69 -9q184 -37 237 -188l7 -42q-6 -246 -281 -460q-142 -91 -294 -151l-13 -84l69 -2l59 -6q226 -46 289 -180l5 -20q15 -193 -471 -519q-409 -249 -814 -394v18q506 251 711 381l-9 75l11 119q65 379 79 477l-53 1q-216 -1 -232 31v8q14 47 157 87
q89 26 160 53q63 349 126 723q-197 -24 -437 -176l-40 -34l-44 -48l-10 -35q50 -29 88 -32q0 -18 -27 -18q-117 2 -118 54q24 95 199 213q247 152 532 158zM598 695q331 142 454 368q48 86 46 187l-8 31q-89 140 -281 135l-73 -7q-32 -114 -138 -714zM334 551q52 0 146 -2
l33 1l9 57q-99 -33 -188 -56zM447 -163q209 134 364 285q105 103 124 193l-4 22q-72 126 -289 150l-78 5q-54 -301 -117 -655z" />
    <glyph glyph-name="C" unicode="C" horiz-adv-x="1297" 
d="M1173 1500q103 -14 124 -112l-1 -23q-21 -62 -58 -69l-50 -13l20 27q16 27 23 57l-4 22q-29 55 -104 44q-322 -66 -587 -369l-15 -17q-326 -379 -358 -846q14 -239 185 -276l15 -2q343 8 718 183q94 42 181 89l-10 -19q0 -14 -138 -103q-76 -44 -115 -62
q-220 -96 -358 -116q-136 -25 -264 -28h-10q-243 7 -267 345v31q33 353 229 655l11 19q109 167 303 344l35 27q248 194 495 212z" />
    <glyph glyph-name="D" unicode="D" horiz-adv-x="1606" 
d="M707 1257q1 25 22 20q15 -2 37 -39l2 -6l-3 -12q-69 -348 -151 -766l-106 -534l-23 -105l-27 -30q-12 23 -17 48q0 36 2 69l2 27l133 656q80 396 123 619q6 22 6 53zM1010 1423q358 -18 502 -233q94 -138 88 -350l-2 -25q-50 -552 -717 -973l-21 -17q-289 -157 -488 -200
q-113 -22 -209 -18q-117 8 -154 61l-9 33l50 -17q130 -42 335 7q179 50 424 183l33 20q622 393 694 906l3 40q-5 340 -263 465q-138 60 -318 57h-23q-318 -6 -580 -132l-9 -6q-123 -69 -183 -175l-5 -23l5 -32l32 -35l-28 -8l-32 13q-31 12 -36 65l1 29q57 162 360 283
q235 85 550 82z" />
    <glyph glyph-name="E" unicode="E" horiz-adv-x="1158" 
d="M1045 1308l28 -10q83 -35 83 -89l-2 -50q-23 -65 -108 -130q-61 -41 -99 -52l-60 -11l25 29q85 55 143 117q55 53 46 105q-2 20 -89 35q-287 -89 -452 -238l-66 -60l-71 -80l-50 -77q15 -20 128 -63l52 -19q181 -55 216 -172v-19q8 -45 -118.5 -195.5t-327.5 -345.5
q-63 -68 -477 -454l29 13q208 127 473 253q255 113 410 156q76 23 136 30q76 14 142 14q119 -4 119 -60h-7q-73 9 -116 6q-114 -5 -246 -40q-269 -76 -799 -370q-81 -50 -147 -74q-65 0 -65 74l32 54q151 139 391 365q84 81 205 199q108 109 202 221q69 76 95 128
q11 25 -14 67l-37 42q-79 57 -270 116l-42 21q-38 25 -38 57l31 56q54 73 117 136q74 79 200.5 159.5t299.5 140.5q52 12 98 15z" />
    <glyph glyph-name="F" unicode="F" horiz-adv-x="1000" 
d="M1093 1463q-142 -157 -215 -267l81 78q114 108 159 186zM71 -672q132 47 220 220q102 195 245 844l-16 -6q-68 -21 -277 -111l-53 -34l-37 -12l-15 26q38 54 77 77l43 24q170 75 294 107q104 424 183 602q-179 -68 -360 -105q-36 14 -61 28l-5 21q81 11 166 27
q189 53 304 113q108 199 273 362q38 22 62 22q17 0 54 -45q-3 -140 -343 -387q-37 -46 -96 -221q-90 -305 -110 -401q146 35 337 44l32 -17l24 -24q-271 -31 -409 -71q-152 -691 -239 -856q-102 -211 -268 -270q-114 -29 -194 8l18 5q57 -5 151 30z" />
    <glyph glyph-name="G" unicode="G" horiz-adv-x="1350" 
d="M1173 1500q103 -14 124 -112l-1 -23q-21 -62 -58 -69l-50 -13l20 27q16 27 23 57l-4 22q-29 55 -104 44q-322 -66 -587 -369l-15 -17q-326 -379 -358 -846q14 -239 185 -276l15 -2q343 8 652 157q52 264 69 350q-291 -68 -354 -99q-58 2 -58 47q54 40 422 112l15 75
q19 86 41 145q33 -22 35 -80q-4 -31 -26 -129q104 18 194 18l22 -6l-21 -19q-162 -35 -206 -49l-67 -339q94 42 181 89l-10 -19q0 -14 -185 -134l-97 -500l-12 -43l-25 -53q-16 21 -17 92l4 50l79 423q-220 -96 -358 -116q-136 -25 -264 -28h-10q-243 7 -267 345v31
q33 353 229 655l11 19q109 167 303 344l35 27q248 194 495 212z" />
    <glyph glyph-name="H" unicode="H" horiz-adv-x="1754" 
d="M1804 1608q27 -6 43 -50q-113 -219 -186 -486q-29 -62 -81 -268q-26 -86 -80 -337q73 17 107 23q41 3 59 3l56 -9l22 -25q-136 -27 -197 -45l-67 -18q-90 -450 -141 -942q-29 -280 -61 -303l-14 36l2 120l22 255q50 474 121 811q-267 -63 -600 -170q-29 -160 -35 -297
l-14 -24l-22 24q-9 61 -10 137q1 60 16 143q-79 -19 -307 -115q-287 -133 -400 -235l-45 10q-15 0 -22 43q11 35 367 212q265 117 421 161q22 214 194 698h20l22 -42q0 -25 -85 -297q-53 -165 -84 -343q68 17 236.5 68t366.5 106q83 373 132.5 538t114.5 361q94 255 129 257
z" />
    <glyph glyph-name="I" unicode="I" horiz-adv-x="900" 
d="M693 943q62 163 140 289l30 41q-155 -41 -373 -70l-47 4l-39 17l-10 23q417 69 468 85q91 23 148 52l15 4q48 -5 66 -29l-23 -24l-59 -22q-73 -28 -144 -158q-109 -183 -183 -471q-56 -190 -89 -362q-34 -127 -54 -319q107 20 259 40q133 10 183 0q51 -7 104 -29l15 -19
q-30 6 -121 10l-66 -2q-164 -10 -380 -58q-4 -17 -9 -34l-20 -6q-25 15 -26 28q-84 -11 -362 -91l-90 -31l-40 -18q-45 3 -77 18l10 23l46 31l78 26q315 84 435 103q15 211 70 432q71 314 145 517z" />
    <glyph glyph-name="J" unicode="J" horiz-adv-x="1000" 
d="M1023 1527q41 -21 48 -63q-7 -77 -170 -862l-71 -340q-76 -332 -219 -575q-183 -289 -330 -297q-163 25 -181 330v33q0 193 121 407l15 26q117 168 226 211q71 27 132 28l-12 -24q-166 -60 -280 -227l-14 -21q-39 -63 -61 -115q-78 -182 -66 -344l5 -41q27 -173 110 -200
l31 6q225 140 375 540l67 221q37 116 258 1225v16l-20 -12q-220 -206 -357 -369q-76 -86 -152 -180v30q27 129 440 532q64 65 105 65z" />
    <glyph glyph-name="K" unicode="K" horiz-adv-x="1250" 
d="M240 465q-53 11 -124 14q-39 0 -66 69q107 45 228 109q7 37 43 230h1q55 278 89 450l27 149q28 0 49 -70q-54 -274 -115 -597q-12 -61 -24 -123q207 130 444 326q207 194 373 383l29 18q5 -19 2 -41l-28 -54q-216 -263 -490 -478q-225 -167 -305 -209q-22 -12 -40 -22
l-22 -110q19 -4 41 -10q188 -45 433 -238q146 -109 367 -329q46 -50 119 -119l16 -23q-26 1 -42 7l-18 7q-51 38 -117 90q-89 76 -237 214q-198 170 -361 257q-80 46 -212 85q-45 -225 -94 -476l-34 -173q-7 -37 -15 -55l-23 -22q-11 8 -24 46l-3 40l61 295q41 203 72 360z
M264 585q-39 -20 -66 -31q-13 -5 -54 -20q43 -1 107 -12q7 32 13 63z" />
    <glyph glyph-name="L" unicode="L" horiz-adv-x="1344" 
d="M893 1507q16 0 53 -45q3 -94 -201 -335q-109 -444 -167 -676q-57 -234 -85 -316q74 -140 244 -169q137 -7 271 23q144 36 237 39l55 -14l33 -35l1 -13q-49 12 -95 8h-22q-107 -16 -206 -41q-114 -25 -240 -26q-162 4 -289 137l-20 25l-9 -19q-112 -170 -230 -219l-34 -1
q-98 0 -88 267q19 175 164 258l25 6h17q63 0 138 -150q51 171 154 601q33 134 62 254q-13 -8 -37 -18q-115 -53 -161 -55l-37 20l31 15q182 79 243 157q138 292 193 322zM170 -88q9 -19 26 -25l17 1q114 71 190 203l18 44q-82 164 -101 166l-22 7l-25 -6l-32 -22l-26 -22
l-29 -50q-51 -125 -26 -257z" />
    <glyph glyph-name="M" unicode="M" horiz-adv-x="1247" 
d="M157 151v-54q13 -64 35 -64l34 1q100 40 166 129q143 204 150 353v28l-54 -3q-134 0 -258 -158q-67 -149 -73 -232zM1494 1500h9q46 -23 46 -73v-10q-208 -236 -383 -843q-123 -470 -150 -791q-3 -194 63 -340l43 -50l-61 23q-111 117 -102 394q16 260 99.5 607
t137.5 473q-138 -204 -397 -559l-23 -13l-24 6q-40 139 -126 201l-29 9q-7 -139 -48 -219q-143 -314 -351 -352q-98 72 -98 135v64q26 215 124 307q110 127 315 127l-10 62q-37 101 -72 122l-9 19l12 28h28q73 0 108 -235q90 -23 172 -140l20 -41q213 281 389 562
q185 282 317 527z" />
    <glyph glyph-name="N" unicode="N" horiz-adv-x="1187" 
d="M907 -76q-62 192 -131 366q-64 173 -150 235l-29 9q-7 -139 -48 -219q-143 -314 -351 -352q-98 72 -98 135v64q26 215 124 307q110 127 315 127l-10 62q-37 101 -72 122l-9 19l12 28h28q73 0 108 -235q90 -23 172 -140q84 -151 157 -381q0 40 74 346q86 351 140 477
l79 218q91 202 182 370l13 18q46 -23 46 -73v-10q-188 -270 -353 -843q-119 -456 -152 -791q-3 -194 63 -340l43 -50l-61 23q-111 117 -102 394q3 55 10 114zM157 151v-54q13 -64 35 -64l34 1q100 40 166 129q143 204 150 353v28l-54 -3q-134 0 -258 -158q-67 -149 -73 -232
z" />
    <glyph glyph-name="O" unicode="O" 
d="M1217 1307q126 -134 174 -301q16 -61 19 -132q-9 -348 -226 -733l-23 -33q-194 -259 -476 -306l-90 -2q-263 -3 -406 185l-22 44q-67 142 -67 311q1 590 459 903l29 12q81 38 148 30q91 -5 130 -48l20 -37l-47 10q-51 20 -133 10l-23 -3q-178 -27 -394 -356
q-112 -216 -120 -487q-9 -310 176 -459l34 -20q118 -52 254 -38q494 46 683 788q25 93 29 201q-6 121 -34 195l-10 24q-64 154 -178 241l-13 9q-58 39 -209 60q-109 -9 -275 -33v12q79 70 284 81q193 -11 307 -128z" />
    <glyph glyph-name="P" unicode="P" horiz-adv-x="1100" 
d="M385 517l71 27q355 144 556 412q90 139 92 227v12q-7 144 -223 203l-56 4q-499 10 -764 -305l-12 -28l-2 -23l2 -17q12 -39 44 -43l12 1l-21 -18l-15 -4l-20 1q-49 30 -49 103l10 33q133 224 439 318q110 36 357 40l45 -2q344 -54 313 -316l-5 -26q-45 -192 -300 -405
l-23 -19q-224 -159 -463 -238q-15 -72 -28 -140l-34 -173l-78 -356q-28 -116 -52 -116l-12 38q0 33 14 131l65 312l61 295q82 408 126 633l27 149q28 0 49 -70q-58 -291 -126 -640z" />
    <glyph glyph-name="Q" unicode="Q" horiz-adv-x="1481" 
d="M945 -23q-28 30 -55 64q-111 150 -165 237l-9 11l-47 42q-38 30 -77 40l13 13q26 14 42 14q27 -1 45 -8q35 -18 76 -69l12 -15q55 -85 160 -232q26 -31 52 -58q214 196 324 629q25 93 29 201q-6 121 -34 195l-10 24q-64 154 -178 241l-13 9q-58 39 -209 60
q-109 -9 -275 -33v12q79 70 284 81q193 -11 307 -128q126 -134 174 -301q16 -61 19 -132q-9 -348 -226 -733l-23 -33q-57 -77 -123 -135q82 -70 170 -104l14 -5q29 -13 87 -17h14q31 1 66.5 9.5t88.5 27.5l83 37q-16 -33 -48 -65q-94 -68 -215 -65l-33 3q-146 23 -275 139
q-137 -103 -305 -131l-90 -2q-263 -3 -406 185l-22 44q-67 142 -67 311q1 590 459 903l29 12q81 38 148 30q91 -5 130 -48l20 -37l-47 10q-51 20 -133 10l-23 -3q-178 -27 -394 -356q-112 -216 -120 -487q-9 -310 176 -459l34 -20q118 -52 254 -38q175 16 312 120z" />
    <glyph glyph-name="R" unicode="R" horiz-adv-x="1486" 
d="M776 472q164 -223 289 -398q125 -150 268 -205l14 -5q29 -13 87 -17h14q31 1 66.5 9.5t88.5 27.5l83 37q-16 -33 -48 -65q-94 -68 -215 -65l-33 3q-204 32 -375 247q-131 177 -291 399q-17 -75 -27 -125l-34 -173l-78 -356q-28 -116 -52 -116l-12 38q0 33 14 131l65 312
l57 277l-17 -7q-270 -92 -473 -92q-167 -5 -167 126l7 26q40 56 95 56l32 -6l-14 -14q-69 -24 -69 -85q26 -44 99 -48q281 9 496 100l25 9q2 11 3 15q-64 92 -153 151l-38 26q56 12 80 3q51 -7 111 -70q8 -10 17 -24q60 303 96 485l27 149q28 0 49 -70q-58 -291 -122 -627
l6 -8l61 22q355 144 556 412q90 139 92 227v12q-7 144 -223 203l-56 4q-499 10 -764 -305l-12 -28l-2 -23l2 -17q12 -39 44 -43l12 1l-21 -18l-15 -4l-20 1q-49 30 -49 103l10 33q133 224 439 318q110 36 357 40l45 -2q344 -54 313 -316l-5 -26q-45 -192 -300 -405l-23 -19
q-210 -149 -412 -221z" />
    <glyph glyph-name="S" unicode="S" horiz-adv-x="1160" 
d="M160 -27l-8 -49q5 -77 47 -125q62 -65 193 -75q217 6 312 59q238 123 244 277v36q-8 186 -203 568q-117 239 -121 395v32q13 326 339 371q186 -10 249 -166v-43q35 -154 -172 -313q-21 10 -32 10q173 186 150 292q-20 114 -158 150q-130 7 -247 -107q-71 -98 -63 -258
q10 -153 223 -577q93 -208 106 -390q-57 -302 -475 -394l-114 -9l-84 9q-158 27 -212 131q-34 62 -34 121q4 100 68 155l24 13q59 31 100 29l31 -18l-27 -7q-55 -11 -103 -62q-24 -32 -33 -55z" />
    <glyph glyph-name="T" unicode="T" horiz-adv-x="713" 
d="M880 1553l31 1q32 -16 32 -39q-14 -106 -175 -232q-205 -622 -351 -1327q-44 -222 -36 -407l-15 -8q-20 23 -38 212q0 173 139 728q25 113 207 751l-21 -10q-166 -83 -552 -183l-56 -3q-23 7 -45 39q619 175 715 265q84 181 165 213z" />
    <glyph glyph-name="U" unicode="U" horiz-adv-x="1168" 
d="M1091 1453l52 -36q15 -68 15 -93q-23 -554 -139 -985l-9 -36q-105 -351 -260 -470l-21 -16q-103 -86 -241 -87h-8q-258 -5 -341 431l-3 16q-29 69 -36 388v118q0 355 121 700q18 36 52 54q18 8 38 6q-81 -208 -115 -398q-34 -210 -32 -382v-107l9 -168q19 -295 135 -499
l10 -14q69 -92 168 -81h13q116 10 224 99l20 24q163 193 249 591q88 417 106 815v76z" />
    <glyph glyph-name="V" unicode="V" horiz-adv-x="916" 
d="M1026 1410l-20 -74q-17 -58 -110 -315q-75 -230 -172 -673q-70 -317 -97 -510l-12 -97l-68 31q-29 174 -66 316q-224 800 -321 1039q-129 317 -250 371l-30 41q86 12 190 -88q97 -116 213 -455l301 -1003q185 890 270 1092q108 280 172 325z" />
    <glyph glyph-name="W" unicode="W" horiz-adv-x="1490" 
d="M872 944l286 -951q185 890 270 1092q108 280 172 325l-20 -74q-17 -58 -110 -315q-75 -230 -172 -673q-70 -317 -97 -510l-12 -97l-68 31q-29 174 -66 316q-129 462 -216 737q-53 -196 -115 -478q-70 -317 -97 -510l-12 -97l-68 31q-29 174 -66 316q-224 800 -321 1039
q-129 317 -250 371l-30 41q86 12 190 -88q97 -116 213 -455l301 -1003q137 660 219 942q31 31 69 10z" />
    <glyph glyph-name="X" unicode="X" horiz-adv-x="1419" 
d="M923 289q-122 175 -202 344q-322 -324 -464 -553q-69 -54 -117 -156l-38 -21l-2 31q15 66 158 275q271 337 426 480q-229 432 -378 475l-39 11q-26 0 -67 29l51 34l34 5q221 -39 450 -506q377 377 606 629q71 78 117 78l41 -7l-52 -49q-136 -166 -675 -708
q104 -203 225 -376q155 -221 300.5 -384t184.5 -213l-53 24q-109 71 -320 310q-150 191 -186 248z" />
    <glyph glyph-name="Y" unicode="Y" horiz-adv-x="1332" 
d="M769 1084l4 -10v-10l-4 -7l-26 -44l-21 -45q-34 -87 -41 -185v-7q0 -101 60 -103h7q97 2 511 441q17 84 59 208l10 24q86 152 150 152l9 1q44 -6 55 -43v-8q-1 -46 -55 -135q-71 -110 -181 -236q-207 -716 -222 -763q111 19 215 24l18 -2l8 -8l-25 -16l-22 -8
q-91 -13 -210 -41q-63 -226 -178 -492q-104 -256 -290 -572l-18 -26q-229 -317 -455 -319l-11 -1q-127 20 -192 200l-3 11q-22 93 -21 187l1 16q5 259 162 476l11 13q117 169 335 304q141 84 357 168q129 48 249 75q22 60 115 390q48 153 91 297q-258 -274 -394 -345l-18 -7
q-43 -19 -93 -15l-6 1q-69 19 -85 117v10q-4 122 58 250q33 57 53 69q15 10 33 14zM1337 1200l18 25q124 166 135 202l5 12q0 6 -8 11h-8l-9 -2q-85 -96 -113 -182zM-38 -732l-1 -12q5 -241 107 -336q26 -22 68 -24h7q116 16 289 199q92 104 172 243q223 395 393 909
q-285 -76 -559 -232q-171 -121 -285 -260q-175 -215 -191 -487z" />
    <glyph glyph-name="Z" unicode="Z" horiz-adv-x="1800" 
d="M1180 -90q-249 23 -458 85q-126 38 -161 48q-273 -313 -398 -292h-9q-50 35 -47 127l1 25q34 164 127 216l9 7q56 27 123 29h14q49 -4 158 -44q26 23 366 434q-91 -4 -137 43l2 19l31 7q44 -14 109 -10l46 1q409 511 515 624l-31 -13q-501 -170 -718 -173q-84 10 -98 47
l14 12l130 -1q159 1 760 205l41 20l135 116l35 14l28 1q33 -13 33 -25q-65 -63 -176 -130q-199 -194 -581 -688l33 3l146 27l177 38l-4 -14q-15 -15 -107 -50l-94 -26l-144 -31l-58 -8l-386 -464q214 -75 531 -121q18 -3 38 -5q135 -7 267 23q144 36 237 39l55 -14l33 -35
l1 -13q-49 12 -95 8h-22q-107 -16 -206 -41q-114 -25 -238 -21q-12 0 -27 1zM172 -71l-6 -28l-4 -29v-24l6 -25l9 -14q83 0 320 256q-79 27 -122 32h-25q-121 -13 -168 -135z" />
    <glyph glyph-name="bracketleft" unicode="[" horiz-adv-x="575" 
d="M301 1099h-110v-1144h127q46 -10 57 -56h-249v1270h249q-22 -48 -74 -70z" />
    <glyph glyph-name="backslash" unicode="\" horiz-adv-x="800" 
d="M138 1136q392 -717 610 -1141q3 -62 -13 -68l-32 20l-621 1169q10 49 18 52l22 -11z" />
    <glyph glyph-name="bracketright" unicode="]" horiz-adv-x="575" 
d="M136 1169h249v-1270h-249q11 46 58 56h126v1144h-110q-52 22 -74 70z" />
    <glyph glyph-name="circumflex" unicode="^" horiz-adv-x="516" 
d="M254 1056l32 -1q45 -63 157 -243l27 -68l-40 13l-163 206l-177 -207l-38 -9l34 59q100 163 168 250z" />
    <glyph glyph-name="underscore" unicode="_" horiz-adv-x="560" 
d="M323 53q69 -1 141 -7l20 -13l1 -16q-16 -16 -34 -21h-196q-180 -3 -196 -3l-16 30l22 22q50 7 200 8h58z" />
    <glyph glyph-name="grave" unicode="`" horiz-adv-x="400" 
d="M301 1207l-50 35q-62 63 -83 87q-46 56 -65 92q6 31 32 49q10 -1 54 -66q21 -24 43 -64q20 -43 69 -133z" />
    <glyph glyph-name="a" unicode="a" horiz-adv-x="624" 
d="M242 144q67 69 100.5 110t47.5 60q2 32 3.5 63t-2 66.5t-28.5 40t-72 -29t-86.5 -83.5t-69.5 -94t-48 -86t-23 -72.5t0.5 -59t41 -19.5t136.5 104zM560 -21l-26 -9q-57 0 -85.5 35t-42.5 112q-8 54 -12 110q-60 -74 -120 -132.5t-102 -85t-82.5 -32t-68 23t-19.5 112.5
q18 106 83.5 201.5t124 149.5t120.5 75.5t94 -19.5q26 -35 27 -90t-2 -123t6 -131t21 -97t33 -41l11 -4h16q20 1 40 9q17 7 48 22l-13 -38q-13 -19 -24 -28t-27 -20z" />
    <glyph glyph-name="b" unicode="b" horiz-adv-x="545" 
d="M245 6l-15 -4q-88 -28 -133 -28l-29 1q-72 30 -72 85q54 238 86 401q70 325 99 473q25 126 41 200h9q30 -39 36 -85q-74 -360 -111 -565l-3 -15l18 11q98 44 191 33l16 -1q121 -50 105 -240l-3 -24q-27 -101 -111 -170l-15 -10q-27 -31 -109 -62zM61 54l4 -19l27 -11
q223 30 314 191l10 24q35 188 -80 216l-16 1q-135 -13 -189 -94z" />
    <glyph glyph-name="c" unicode="c" horiz-adv-x="446" 
d="M90 254q-49 -112 -15 -177l4 -12q47 -61 87 -58h11q59 4 149 37q66 25 120 57l-11 -32l-28 -44q-126 -68 -264 -77q-155 46 -140 221l1 19q68 243 239 335q31 14 65 17q61 -11 96 -63l12 -27q-10 -5 -45 2l-35 19q-30 10 -73 -3q-63 -31 -106.5 -95t-66.5 -119z" />
    <glyph glyph-name="d" unicode="d" horiz-adv-x="563" 
d="M64 139q5 -36 25 -64q15 -18 41 -28q24 -6 56 5q45 10 91 61q41 42 74 94q26 90 36 188q-39 61 -122 83l-36 -5q-36 -8 -87 -56q-67 -66 -78 -155q-10 -59 0 -123zM263 31q-46 -41 -110 -48h-18q-123 22 -134 189q-14 242 188 347l39 14l35 2q69 -10 139 -74
q70 325 99 473q25 126 41 200h9q30 -39 36 -85q-93 -452 -158 -792l-9 -73q-9 -73 7 -101q17 -43 38 -50l11 -4h16q20 1 35 5q22 8 53 26l-13 -38q-20 -36 -77 -49q-57 1 -95 50q-32 38 -37 100q-39 -49 -95 -92z" />
    <glyph glyph-name="e" unicode="e" horiz-adv-x="545" 
d="M268 546l27 -1q45 -5 71 -32l23 -34l7 -43l-1 -36q-32 -91 -148 -149q-96 -40 -152 -48q8 -152 98 -177q87 -3 168 27l49 20l51 26l52 35l32 21l-18 -58l-35 -35l-38 -28l-38 -19q-108 -51 -227 -44q-127 2 -154 225l-18 6q-16 20 -17 50l35 2q21 85 66 159
q74 113 167 133zM126 335l-26 -74l47 12q151 45 189 130l2 37l-13 28l-25 18l-28 -3q-75 -12 -146 -148z" />
    <glyph glyph-name="f" unicode="f" horiz-adv-x="467" 
d="M401 1182h10q43 0 51 -51q4 -71 -55 -237l-3 -9q-28 -72 -108 -201l-34 -170h60q59 -1 103 -10l22 -11l27 -27l-23 -10q-31 1 -54 2q-60 0 -146 -1q-107 -551 -148 -727q-23 -54 -50 -93l-5 28q2 79 4 114l7 48q89 402 129 631q-44 2 -166 -5l-17 3q-8 9 -25 38l14 12
l44 3q81 1 192 157q91 470 171 516zM398 1044q12 31 9 58l-2 5q-16 -37 -65 -215l-12 -42q36 80 70 194zM201 515l7 39q-23 -32 -40 -40q18 1 33 1z" />
    <glyph glyph-name="g" unicode="g" horiz-adv-x="620" 
d="M486 624q45 4 72 -82q3 -72 -54 -165q-20 -43 -103 -133l-14 -13q-15 -90 -24 -180q94 24 173 34l89 10q20 -1 45 -3q25 -4 36 -17q-29 -5 -83 -14q-166 -33 -266 -72q-37 -363 -88 -543q-20 -92 -65 -161q-39 -66 -116 -93q-36 -8 -75 13q-40 27 -75 109l-50 83
q-63 103 -169 217q-13 15 -18 39q-5 16 0 29q9 43 68 93q87 63 143 89q191 93 373 160l14 6q13 106 22 159q-75 -43 -139 -47q-68 -2 -104 29l-8 8q-40 36 -36 100q0 80 77 161q80 67 165 93q36 15 65 15q23 0 50 -30q20 51 45 75q18 23 50 31zM403 331q14 18 36 50
q63 88 63 158q0 13 -9 13q-29 1 -54 -75q-21 -88 -36 -146zM88 264l3 -18q23 -51 78 -50q75 2 165 68q10 73 41 200q-11 18 -26 23q-30 -1 -56 -10q-98 -29 -167 -108q-37 -42 -38 -105zM-143 -241q-87 -64 -99 -101l4 -8q34 -40 104 -120q45 -58 69 -97q45 -74 80 -145
q18 -29 49 -35q30 1 64 35t59 110q30 78 66 287q22 128 39 279q-158 -58 -306 -130q-71 -35 -129 -75z" />
    <glyph glyph-name="h" unicode="h" horiz-adv-x="628" 
d="M493 427l-43 -206l-34 -173l49 31q32 21 139 101l3 -10l-85 -105q-56 -75 -103 -99h-24q-26 13 -39 51l-3 40l61 295l15 88q5 26 -6 34l-22 6q-54 -1 -113 -40q-70 -43 -147 -118q-8 -26 -23 -102l-34 -173q-11 -38 -12 -56l-9 -26q-26 13 -39 51l-3 40l61 295
q82 408 126 633l27 149q28 0 49 -70q-57 -288 -125 -644q64 49 116 79q42 23 101 38l16 1q97 -6 103 -88q-1 -10 -2 -22z" />
    <glyph glyph-name="i" unicode="i" horiz-adv-x="295" 
d="M23 17l-3 40l61 295l41 217q28 0 53 -74l-58 -274l-34 -173l49 31q32 21 139 101l3 -10l-85 -105q-56 -75 -103 -99h-24q-26 13 -39 51zM151 777l29 -7l30 -35l12 -45q-12 -21 -34 -29l-24 21q-11 16 -20 60l-1 26z" />
    <glyph glyph-name="j" unicode="j" horiz-adv-x="350" 
d="M209 347q-1 -15 -4 -26l-15 -101q-35 -255 -37 -271q78 -1 128 -5q63 -8 92 -18q24 -5 36 -17l-29 -9l-59 -1q-96 5 -172 -1q-29 -272 -80 -452q-20 -92 -65 -161q-39 -66 -100 -93q-36 -8 -75 13q-40 27 -76 124l-44 97q-53 100 -127 206q-13 15 -18 39q-5 16 0 29
q12 41 67 88q74 55 134 76q135 62 312 80l14 6q27 192 38 276l17 123l28 219q28 2 58 -71zM-280 -223q-87 -64 -98 -98l3 -11q34 -40 100 -157q19 -31 33 -60q29 -52 72 -162q19 -30 50 -36q30 1 56 35t51 110q30 78 66 287q22 128 33 210q-155 -20 -247 -61
q-57 -23 -119 -57zM200 777l29 -7l30 -35l12 -45q-12 -21 -34 -29l-24 21q-11 16 -20 60l-1 26z" />
    <glyph glyph-name="k" unicode="k" horiz-adv-x="522" 
d="M114 205l-31 -157l-16 -82h-5q-26 13 -39 51l-3 40l61 295q82 408 126 633l27 149q28 0 49 -70q-72 -365 -139 -731l27 12q115 75 204 136q50 36 79 52q4 -20 -8 -49l-20 -26q-96 -88 -267 -191l-15 -7q130 -147 264 -231l74 -39l-30 -17l-27 -6q-91 21 -242 162z" />
    <glyph glyph-name="l" unicode="l" horiz-adv-x="295" 
d="M23 17l-3 40l61 295q82 408 126 633l27 149q28 0 49 -70q-75 -379 -166 -843l-34 -173l49 31q32 21 139 101l3 -10l-85 -105q-56 -75 -103 -99h-24q-26 13 -39 51z" />
    <glyph glyph-name="m" unicode="m" horiz-adv-x="643" 
d="M285 425q-77 -45 -157 -137l-77 -306l-20 -3q-24 32 -32 82q39 112 73 292q12 67 -7 115l10 42l28 -8q29 -22 44 -69l-2 -38q91 86 175 112l16 -11q17 -23 21 -63l-2 -38q81 76 152 116l18 -6q20 -14 29 -43l1 -41l-5 -53q-10 -57 -37 -218q-9 -45 -8 -69q2 -34 23 -41
l11 -4h11q20 1 40 8l43 22l-11 -35q-13 -18 -24 -27t-27 -20l-25 -6q-41 -3 -71 22q-13 13 -23 31q-15 36 -10 63l1 26q5 24 25 144q15 66 24 137q0 12 -1 21q-75 -45 -153 -134l-77 -306l-20 -3q-24 32 -32 82q39 112 73 292q7 39 3 72z" />
    <glyph glyph-name="n" unicode="n" horiz-adv-x="544" 
d="M347 456l-42 -21q-86 -44 -176 -147l-77 -306l-20 -3q-24 32 -32 82q39 112 73 292q12 67 -7 115l10 42l28 -8q29 -22 44 -69l-2 -38q118 111 224 123q51 2 75 -38q12 -19 11 -59l-5 -53q-10 -57 -37 -218q-9 -45 -8 -69q2 -34 23 -41l11 -4h11q20 1 40 8l43 22l-11 -35
q-13 -18 -24 -27t-27 -20l-25 -6q-41 -3 -71 22q-13 13 -23 31q-15 36 -10 63l1 26q5 24 25 144q15 66 24 137q1 56 -23 56z" />
    <glyph glyph-name="o" unicode="o" horiz-adv-x="553" 
d="M315 545q159 -73 178 -210q-8 -218 -184 -356q-84 -32 -145 -32q-161 51 -161 192l3 40q22 223 237 360zM67 156v-28q13 -72 90 -126h60l51 19l44 37q115 120 121 268l-25 66l-25 41q-51 42 -98 45l-68 -29q-150 -144 -150 -293z" />
    <glyph glyph-name="p" unicode="p" horiz-adv-x="580" 
d="M112 -15q-23 -12 -42 -21q-110 -64 -136 -64h-18v18q140 91 211 143q10 52 20 101l29 149q9 41 32 151q-83 -27 -118 -65l1 -15l21 -18l1 -5l-9 -3q-48 0 -55 49q0 58 173 118l12 58l20 14q18 -15 24 -59q108 19 165 -2q60 -20 99 -69l12 -38l1 -29l-11 -35
q-23 -58 -124 -159l-53 -47q-121 -92 -187 -134q-57 -290 -123 -625l-40 -191q-13 -40 -15 -77q-26 26 -39 64l-3 40q115 562 152 751zM198 105l77 55q153 115 216 232q5 24 5 45q-18 31 -70 47l-25 5q-68 12 -130 -10q-50 -261 -73 -374z" />
    <glyph glyph-name="q" unicode="q" horiz-adv-x="620" 
d="M533 578h11q15 -44 18 -61l-6 -34q-47 -94 -95 -213q-59 -141 -87 -230l148 31q32 -4 65 -42l-108 -21l-125 -28q-38 -101 -98 -312q-52 -204 -89 -466l-10 -74l-30 46l-9 56q22 236 83 471q43 158 79 262q-70 -16 -216 -73l-21 -8q-33 5 -51 15l-18 12q92 51 327 118
q38 107 92 227l-79 -71l-92 -43l-54 -10q-100 16 -100 168q48 225 218 260l28 3q80 -25 94 -61v-66l-52 46l-34 16q-45 4 -84 -20q-90 -82 -103 -218l7 -35l14 -20l23 -6l26 9q103 45 174 106l47 47q35 71 54 113q20 52 53 106z" />
    <glyph glyph-name="r" unicode="r" horiz-adv-x="451" 
d="M214 404q-48 -36 -74 -96q-28 -76 -81 -286l-17 -70q-36 28 -42 76q29 114 52 203.5t9 200.5l-31 71q2 18 11 34l40 -8q30 -40 43 -103l1 -19l28 25q56 47 114 60l37 3q58 -2 93 -20q30 -26 48 -53l-3 -47l-14 13q-28 24 -57 42q-45 8 -80 9q-38 -13 -77 -35z" />
    <glyph glyph-name="s" unicode="s" horiz-adv-x="512" 
d="M415 102q0 -39 -28 -69q-43 -39 -86 -53q-126 -30 -234 -5q-52 17 -81 58q-15 25 -16 56l4 20q31 -36 49 -52q67 -43 117 -41q57 -4 119 7q61 17 97 63l2 12q-9 34 -45 57l-69 62l-51 45q-80 81 -85 122l4 43q27 82 143 134l23 5l30 1q70 -1 119 -31l21 -16l10 -17l3 -19
l1 -21q-42 26 -105 45l-47 3l-35 -5q-107 -61 -104 -116q20 -51 104 -123l60 -55l40 -39q36 -38 40 -71z" />
    <glyph glyph-name="t" unicode="t" horiz-adv-x="467" 
d="M251 458q-12 -58 -23 -117l-46 -239l-9 -54l49 31q32 21 139 101l3 -10l-85 -105q-56 -75 -103 -99h-24q-26 13 -39 51l-3 40l61 295q10 52 20 102q-85 -3 -160 -4l-35 15l-11 12l-16 22q22 10 236 18q36 190 50 269l27 149q28 0 51 -70q-34 -168 -70 -348l25 2l123 -3
l28 -9q27 -17 38 -45q-102 1 -226 -4z" />
    <glyph glyph-name="u" unicode="u" horiz-adv-x="585" 
d="M362 210l-5 -13q-108 -173 -203 -216l-27 -9l-35 -3q-89 10 -92 161q31 245 118 423q23 -14 41 -61q-86 -229 -91 -393l7 -40l24 -30l31 5l33 20q186 158 247 476q51 -26 51 -69q-46 -129 -43 -221q-3 -96 20 -157q11 -38 43 -49h16q20 1 40 9q17 7 48 22l-13 -38
q-13 -19 -24 -28t-27 -20l-26 -9q-41 -3 -76 34t-47 107t-10 99z" />
    <glyph glyph-name="v" unicode="v" horiz-adv-x="524" 
d="M140 109q-71 224 -118 344l-22 55l19 -3q52 -21 75 -72l19 -60q46 -123 79 -226q18 -52 29 -73l7 -5l27 59q99 222 154 310q51 82 96 110l22 6l7 -16l-47 -69l-59 -115q-58 -116 -114 -246q-38 -90 -62 -128l-37 -9l-34 27q-18 50 -41 111z" />
    <glyph glyph-name="w" unicode="w" horiz-adv-x="614" 
d="M267 302q-84 -243 -115 -298l-25 -28h-12l-34 41l-4 73l-1 47q-17 196 -54 316l-22 55l19 -3q52 -21 72 -69l12 -49q27 -165 33 -264l21 56q18 46 42 111q23 71 53 129q14 33 32 58l23 9l28 -10q24 -35 43 -215l9 -97l4 -66l7 32l18 64q46 150 105 265q42 66 79 88l16 3
l8 -12l-40 -71l-51 -117q-52 -134 -117 -373q-22 -10 -42 -12q-14 3 -36 49l-4 44q-2 123 -26 296l-7 37z" />
    <glyph glyph-name="x" unicode="x" horiz-adv-x="555" 
d="M409 553l32 21q18 7 53 8l28 -9l-62 -46q-98 -101 -181 -235q23 -63 71 -133q48 -61 91 -93q36 -32 114 -54l-31 -16l-44 -9l-28 10q-62 29 -114 88q-43 42 -97 152q-148 -216 -210 -256l-40 -12l-32 1l33 37q103 118 218 288q-60 141 -117 190q-16 11 -56 38
q38 19 56 16q45 -7 68 -33q55 -69 87 -157q50 87 161 204z" />
    <glyph glyph-name="y" unicode="y" horiz-adv-x="548" 
d="M425 450l70 138q17 0 33 -59l-69 -141l-63 -148q-193 -428 -445 -1055l-46 -113q-13 34 -15 63q63 267 352 914l75 156q-68 -105 -125 -148l-23 -4q-27 14 -50 54q-40 145 -60.5 224t-46.5 122l20 46l21 16q23 -28 46 -99l37 -127l36 -144l7 -16q155 151 246 321z" />
    <glyph glyph-name="z" unicode="z" horiz-adv-x="542" 
d="M230 292q85 99 150 197l-51 -10q-91 -18 -198 -19q-35 19 -43 41l27 13q73 0 149 9q65 11 142 31l9 -3q16 -5 34 -56q-100 -153 -147 -200l41 4q34 6 92 9v-10l-26 -31l-34 -14q-47 -6 -118 -12q-99 -107 -197 -207q178 33 323 21q83 -5 109 -19l23 -11l24 -23l4 -13
q-126 25 -282 17q-200 -12 -254 -41l-19 13q-15 13 -19 40l24 28q84 88 181 188q-52 -3 -113 -8l8 20q19 26 48 37q43 7 113 9z" />
    <glyph glyph-name="braceleft" unicode="{" horiz-adv-x="575" 
d="M393 1172l22 -7l10 -19l-9 -20l-15 -6q-41 -11 -67 -52l-7 -16q-15 -72 -47 -292l-5 -35q-31 -157 -87 -223q61 -30 80 -378q28 -148 137 -198v-19l-39 -10q-145 9 -171 382l-2 44q-14 116 -95 168v20q78 49 107 175q22 81 69 393l8 20q30 57 111 73z" />
    <glyph glyph-name="bar" unicode="|" horiz-adv-x="420" 
d="M170 1161l14 22q9 2 48 -43l-6 -1228l-18 -35q-17 -3 -43 60q-7 529 1 1194z" />
    <glyph glyph-name="braceright" unicode="}" horiz-adv-x="575" 
d="M190 -103l-22 7l-10 19l9 20l15 6q41 11 67 52l7 16q24 102 47 242l5 35q31 157 87 223q-61 30 -80 428q-28 148 -137 198v19l38 10q146 -9 172 -382l2 -44q14 -166 95 -218v-20q-78 -49 -107 -175q-38 -238 -69 -343l-8 -20q-30 -57 -111 -73z" />
    <glyph glyph-name="tilde" unicode="~" horiz-adv-x="900" 
d="M289 555l32 -2q70 0 189 -71l36 -10l36 5q81 17 202 90l16 -33l-24 -31l-25 -17q-52 -33 -132 -56l-66 -9l-61 6l-40 16q-85 46 -139 58h-29q-57 -8 -155 -71q-27 14 -29 38l11 21q64 51 178 66z" />
    <glyph glyph-name="exclamdown" unicode="&#xa1;" horiz-adv-x="580" 
d="M213 -235q-35 14 -50 30l-21 28q191 760 205 1175l3 61l2 38h24q26 -50 31 -118l4 -65q-17 -439 -198 -1149zM344 1348q17 38 48 57h24q26 -8 35 -50l-1 -33q-26 -83 -81 -68q-36 24 -25 94z" />
    <glyph glyph-name="currency" unicode="&#xa4;" 
d="M1217 1307q126 -134 174 -301q16 -61 19 -132q-9 -348 -226 -733l-23 -33q-194 -259 -476 -306l-90 -2q-263 -3 -406 185l-22 44q-67 142 -67 311q1 590 459 903l29 12q81 38 148 30q91 -5 130 -48l20 -37l-47 10q-51 20 -133 10l-23 -3q-178 -27 -394 -356
q-112 -216 -120 -487q-9 -310 176 -459l34 -20q118 -52 254 -38q494 46 683 788q25 93 29 201q-6 121 -34 195l-10 24q-64 154 -178 241l-13 9q-58 39 -209 60q-109 -9 -275 -33v12q79 70 284 81q193 -11 307 -128zM847 942l-129 -194l125 -32zM680 698l-88 -138l92 -113
l159 67l1 140zM434 759q61 -61 124 -150l65 103q-160 38 -189 47zM559 513q-46 -84 -114 -185l188 96zM849 250l-4 206l-128 -51q62 -71 132 -155zM1120 598q-138 28 -217 47l1 -109zM827 1021l46 62q18 -1 35 -32l1 -73l-6 -274q66 -12 273 -62l33 -22l23 -25
q-39 -25 -85 -42q-143 -38 -243 -77l-3 -241q0 -57 -7 -85l-33 9q-61 45 -194 220q-87 -39 -232 -108l-49 -16l-10 9q-3 26 8 59l137 236q-185 214 -185 268q19 11 44 11q239 -65 276 -75q50 62 171 258z" />
    <glyph glyph-name="dieresis" unicode="&#xa8;" horiz-adv-x="450" 
d="M99 1395l43 -9q50 -36 42 -91l-24 -7l-11 2q-57 15 -60 49zM282 1395l44 -9q50 -36 41 -91l-24 -7l-11 2q-56 15 -60 49z" />
    <glyph glyph-name="copyright" unicode="&#xa9;" 
d="M1217 1307q126 -134 174 -301q16 -61 19 -132q-9 -348 -226 -733l-23 -33q-194 -259 -476 -306l-90 -2q-263 -3 -406 185l-22 44q-67 142 -67 311q1 590 459 903l29 12q81 38 148 30q91 -5 130 -48l20 -37l-47 10q-51 20 -133 10l-23 -3q-178 -27 -394 -356
q-112 -216 -120 -487q-9 -310 176 -459l34 -20q118 -52 254 -38q494 46 683 788q25 93 29 201q-6 121 -34 195l-10 24q-64 154 -178 241l-13 9q-58 39 -209 60q-109 -9 -275 -33v12q79 70 284 81q193 -11 307 -128zM597 610q-49 -112 -15 -177l4 -12q47 -61 87 -58h11
q59 4 149 37q66 25 120 57l-11 -32l-28 -44q-126 -68 -264 -77q-155 46 -140 221l1 19q68 243 239 335q31 14 65 17q61 -11 96 -63l12 -27q-10 -5 -45 2l-35 19q-30 10 -73 -3q-63 -31 -106.5 -95t-66.5 -119z" />
    <glyph glyph-name="registered" unicode="&#xae;" 
d="M1217 1307q126 -134 174 -301q16 -61 19 -132q-9 -348 -226 -733l-23 -33q-194 -259 -476 -306l-90 -2q-263 -3 -406 185l-22 44q-67 142 -67 311q1 590 459 903l29 12q81 38 148 30q91 -5 130 -48l20 -37l-47 10q-51 20 -133 10l-23 -3q-178 -27 -394 -356
q-112 -216 -120 -487q-9 -310 176 -459l34 -20q118 -52 254 -38q494 46 683 788q25 93 29 201q-6 121 -34 195l-10 24q-64 154 -178 241l-13 9q-58 39 -209 60q-109 -9 -275 -33v12q79 70 284 81q193 -11 307 -128zM760 747q-48 -36 -74 -96q-28 -76 -81 -286l-17 -70
q-36 28 -42 76q29 114 52 203.5t9 200.5l-31 71q2 18 11 34l40 -8q30 -40 43 -103l1 -19l28 25q56 47 114 60l37 3q58 -2 93 -20q30 -26 48 -53l-3 -47l-14 13q-28 24 -57 42q-45 8 -80 9q-38 -13 -77 -35z" />
    <glyph glyph-name="macron" unicode="&#xaf;" horiz-adv-x="560" 
d="M323 1376q69 -1 141 -7l20 -13l1 -16q-16 -16 -34 -21h-196q-180 -3 -196 -3l-16 30l22 22q50 7 200 8h58z" />
    <glyph glyph-name="plusminus" unicode="&#xb1;" horiz-adv-x="800" 
d="M380 230q-5 21 -5 52v229h-10q-180 -3 -196 -3l-16 28l22 20q50 7 200 8q1 79 6 232l16 29q32 -21 38 -66l-2 -195q119 -1 191 -7l20 -13l1 -14q-16 -14 -34 -19h-178l-4 -198q-1 -51 -6 -83h50q76 -1 157 -6l22 -10l1 -13q-16 -13 -37 -18l-219 1q-203 -3 -220 -3
l-18 25l25 18q51 5 196 6z" />
    <glyph glyph-name="acute" unicode="&#xb4;" horiz-adv-x="450" 
d="M212 1368q27 37 51 58q53 58 63 58q23 -22 25 -53q-24 -33 -77 -82q-48 -45 -118 -99l-54 -28q61 82 110 146z" />
    <glyph glyph-name="periodcentered" unicode="&#xb7;" horiz-adv-x="350" 
d="M229 552q-17 -38 -48 -57h-24q-26 8 -35 50l1 33q26 83 81 68q36 -24 25 -94z" />
    <glyph glyph-name="periodcentered" unicode="&#x2219;" horiz-adv-x="350" 
d="M229 552q-17 -38 -48 -57h-24q-26 8 -35 50l1 33q26 83 81 68q36 -24 25 -94z" />
    <glyph glyph-name="questiondown" unicode="&#xbf;" horiz-adv-x="800" 
d="M329 -231l-35 -4q-168 -6 -190 168l3 32q44 173 280 583l29 53q132 319 115 465h36q23 -81 23 -140q-35 -248 -176 -479l-21 -39q-178 -304 -217 -463v-47q16 -47 71 -58l51 -3q204 35 320 251v36q-28 43 -98 43q23 46 70 46l35 -1q60 -33 66 -101l-5 -48
q-145 -260 -357 -294zM516 1324q17 38 48 57h24q26 -8 35 -50l-1 -33q-26 -83 -81 -68q-36 24 -25 94z" />
    <glyph glyph-name="Agrave" unicode="&#xc0;" horiz-adv-x="1420" 
d="M1057 389q-89 -15 -315 -89q-169 -295 -470 -686q-195 -203 -257 -204l188 206q364 501 443 654q-67 -27 -552 -213l-58 -6q-23 2 -71 5l-15 21q589 219 741 273q147 268 399 713q60 107 148 266l34 43l-31 -165q-63 -352 -106 -742q63 11 161 12q52 -7 83 -38
q-46 -1 -114 -11q-52 -6 -136 -21q-17 -254 -16 -376q7 -166 59 -267l44 -66l-61 23q-111 117 -114 356q2 166 16 312zM784 376q155 52 278 76q51 423 78 569zM1246 1447l-50 35q-62 63 -83 87q-46 56 -65 92q6 31 32 49q10 -1 54 -66q21 -24 43 -64q20 -43 69 -133z" />
    <glyph glyph-name="Aacute" unicode="&#xc1;" horiz-adv-x="1420" 
d="M1057 389q-89 -15 -315 -89q-169 -295 -470 -686q-195 -203 -257 -204l188 206q364 501 443 654q-67 -27 -552 -213l-58 -6q-23 2 -71 5l-15 21q589 219 741 273q147 268 399 713q60 107 148 266l34 43l-31 -165q-63 -352 -106 -742q63 11 161 12q52 -7 83 -38
q-46 -1 -114 -11q-52 -6 -136 -21q-17 -254 -16 -376q7 -166 59 -267l44 -66l-61 23q-111 117 -114 356q2 166 16 312zM784 376q155 52 278 76q51 423 78 569zM1422 1608q27 37 51 58q53 58 63 58q23 -22 25 -53q-24 -33 -77 -82q-48 -45 -118 -99l-54 -28q61 82 110 146z
" />
    <glyph glyph-name="Acircumflex" unicode="&#xc2;" horiz-adv-x="1420" 
d="M1057 389q-89 -15 -315 -89q-169 -295 -470 -686q-195 -203 -257 -204l188 206q364 501 443 654q-67 -27 -552 -213l-58 -6q-23 2 -71 5l-15 21q589 219 741 273q147 268 399 713q60 107 148 266l34 43l-31 -165q-63 -352 -106 -742q63 11 161 12q52 -7 83 -38
q-46 -1 -114 -11q-52 -6 -136 -21q-17 -254 -16 -376q7 -166 59 -267l44 -66l-61 23q-111 117 -114 356q2 166 16 312zM784 376q155 52 278 76q51 423 78 569zM1281 1658l21 -4q39 -38 137 -146l24 -41l-44 26l-135 86l-146 -91l-41 -19l30 35q87 98 154 154z" />
    <glyph glyph-name="Atilde" unicode="&#xc3;" horiz-adv-x="1420" 
d="M1057 389q-89 -15 -315 -89q-169 -295 -470 -686q-195 -203 -257 -204l188 206q364 501 443 654q-67 -27 -552 -213l-58 -6q-23 2 -71 5l-15 21q589 219 741 273q147 268 399 713q60 107 148 266l34 43l-31 -165q-63 -352 -106 -742q63 11 161 12q52 -7 83 -38
q-46 -1 -114 -11q-52 -6 -136 -21q-17 -254 -16 -376q7 -166 59 -267l44 -66l-61 23q-111 117 -114 356q2 166 16 312zM784 376q155 52 278 76q51 423 78 569zM1185 1649l20 -2q43 0 116 -71l23 -12l21 7q50 17 124 90l10 -33l-15 -31l-15 -17q-32 -33 -81 -56l-41 -9l-37 6
l-25 16q-52 46 -85 58h-18q-35 -8 -95 -71q-17 14 -18 38l7 21q39 51 109 66z" />
    <glyph glyph-name="Adieresis" unicode="&#xc4;" horiz-adv-x="1420" 
d="M1057 389q-89 -15 -315 -89q-169 -295 -470 -686q-195 -203 -257 -204l188 206q364 501 443 654q-67 -27 -552 -213l-58 -6q-23 2 -71 5l-15 21q589 219 741 273q147 268 399 713q60 107 148 266l34 43l-31 -165q-63 -352 -106 -742q63 11 161 12q52 -7 83 -38
q-46 -1 -114 -11q-52 -6 -136 -21q-17 -254 -16 -376q7 -166 59 -267l44 -66l-61 23q-111 117 -114 356q2 166 16 312zM784 376q155 52 278 76q51 423 78 569zM1149 1624l43 -9q50 -36 42 -91l-24 -7l-11 2q-57 15 -60 49zM1332 1624l44 -9q50 -36 41 -91l-24 -7l-11 2
q-56 15 -60 49z" />
    <glyph glyph-name="Aring" unicode="&#xc5;" horiz-adv-x="1420" 
d="M1057 389q-89 -15 -315 -89q-169 -295 -470 -686q-195 -203 -257 -204l188 206q364 501 443 654q-67 -27 -552 -213l-58 -6q-23 2 -71 5l-15 21q589 219 741 273q147 268 399 713q60 107 148 266l34 43l-31 -165q-63 -352 -106 -742q63 11 161 12q52 -7 83 -38
q-46 -1 -114 -11q-52 -6 -136 -21q-17 -254 -16 -376q7 -166 59 -267l44 -66l-61 23q-111 117 -114 356q2 166 16 312zM784 376q155 52 278 76q51 423 78 569zM1308 1678h17q74 -11 78 -87v-16q-10 -78 -88 -88l-16 -1q-75 19 -75 94v13q20 77 84 85zM1313 1632
q-33 -2 -47 -43l1 -12q5 -41 37 -46l13 -1q35 4 48 45v16q-14 38 -42 41h-10z" />
    <glyph glyph-name="AE" unicode="&#xc6;" horiz-adv-x="2008" 
d="M784 266q155 52 278 76q51 423 78 569zM1041 -57v24q2 166 16 312q-89 -15 -315 -89q-169 -295 -470 -686q-195 -203 -257 -204l188 206q364 501 443 654q-67 -27 -552 -213l-58 -6q-23 2 -71 5l-15 21q589 219 741 273q147 268 399 713q96 186 117 271l33 95
q19 78 62 146h34q0 -18 9 -18l-55 -175l-49 -175q-18 -102 -35 -207q43 54 91 102q74 79 200.5 159.5t299.5 140.5q52 12 98 15l28 -10q83 -35 83 -89l-2 -50q-23 -65 -108 -130q-61 -41 -99 -52l-60 -11l25 29q85 55 143 117q55 53 46 105q-2 20 -89 35q-287 -89 -452 -238
l-66 -60l-71 -80l-50 -77q15 -20 128 -63l52 -19q181 -55 216 -172v-19q8 -45 -118.5 -195.5t-327.5 -345.5q-63 -68 -477 -454l29 13q208 127 473 253q255 113 410 156q76 23 136 30q76 14 142 14q119 -4 119 -60h-7q-73 9 -116 6q-114 -5 -246 -40q-269 -76 -799 -370
q-81 -50 -147 -74q-65 0 -65 74l32 54q149 137 384 359zM1184 745q-27 -190 -49 -390q63 11 161 12q52 -7 83 -38q-46 -1 -114 -11q-52 -6 -136 -21q-11 -173 -15 -284q62 60 139 135q108 109 202 221q69 76 95 128q11 25 -14 67l-37 42q-79 57 -270 116l-42 21q-1 1 -3 2z
" />
    <glyph glyph-name="Ccedilla" unicode="&#xc7;" horiz-adv-x="1297" 
d="M643 -105h-2q-136 -25 -264 -28h-10q-243 7 -267 345v31q33 353 229 655l11 19q109 167 303 344l35 27q248 194 495 212q103 -14 124 -112l-1 -23q-21 -62 -58 -69l-50 -13l20 27q16 27 23 57l-4 22q-29 55 -104 44q-322 -66 -587 -369l-15 -17q-326 -379 -358 -846
q14 -239 185 -276l15 -2q343 8 718 183q94 42 181 89l-10 -19q0 -14 -138 -103q-76 -44 -115 -62q-169 -74 -290 -103q-6 -14 -5 -28q20 -51 56 -118q65 -104 68 -169v-12q0 -28 -28 -58q-82 -86 -179 -67l-16 4q-57 22 -86 63q-15 25 -16 56l4 20q31 -36 49 -52
q67 -43 113 -37l19 3q58 20 79 70l2 12q-13 71 -74 157q-49 81 -54 122z" />
    <glyph glyph-name="Egrave" unicode="&#xc8;" horiz-adv-x="1158" 
d="M1045 1308l28 -10q83 -35 83 -89l-2 -50q-23 -65 -108 -130q-61 -41 -99 -52l-60 -11l25 29q85 55 143 117q55 53 46 105q-2 20 -89 35q-287 -89 -452 -238l-66 -60l-71 -80l-50 -77q15 -20 128 -63l52 -19q181 -55 216 -172v-19q8 -45 -118.5 -195.5t-327.5 -345.5
q-63 -68 -477 -454l29 13q208 127 473 253q255 113 410 156q76 23 136 30q76 14 142 14q119 -4 119 -60h-7q-73 9 -116 6q-114 -5 -246 -40q-269 -76 -799 -370q-81 -50 -147 -74q-65 0 -65 74l32 54q151 139 391 365q84 81 205 199q108 109 202 221q69 76 95 128
q11 25 -14 67l-37 42q-79 57 -270 116l-42 21q-38 25 -38 57l31 56q54 73 117 136q74 79 200.5 159.5t299.5 140.5q52 12 98 15zM891 1447l-50 35q-62 63 -83 87q-46 56 -65 92q6 31 32 49q10 -1 54 -66q21 -24 43 -64q20 -43 69 -133z" />
    <glyph glyph-name="Eacute" unicode="&#xc9;" horiz-adv-x="1158" 
d="M1045 1308l28 -10q83 -35 83 -89l-2 -50q-23 -65 -108 -130q-61 -41 -99 -52l-60 -11l25 29q85 55 143 117q55 53 46 105q-2 20 -89 35q-287 -89 -452 -238l-66 -60l-71 -80l-50 -77q15 -20 128 -63l52 -19q181 -55 216 -172v-19q8 -45 -118.5 -195.5t-327.5 -345.5
q-63 -68 -477 -454l29 13q208 127 473 253q255 113 410 156q76 23 136 30q76 14 142 14q119 -4 119 -60h-7q-73 9 -116 6q-114 -5 -246 -40q-269 -76 -799 -370q-81 -50 -147 -74q-65 0 -65 74l32 54q151 139 391 365q84 81 205 199q108 109 202 221q69 76 95 128
q11 25 -14 67l-37 42q-79 57 -270 116l-42 21q-38 25 -38 57l31 56q54 73 117 136q74 79 200.5 159.5t299.5 140.5q52 12 98 15zM949 1608q27 37 51 58q53 58 63 58q23 -22 25 -53q-24 -33 -77 -82q-48 -45 -118 -99l-54 -28q61 82 110 146z" />
    <glyph glyph-name="Ecircumflex" unicode="&#xca;" horiz-adv-x="1158" 
d="M1045 1308l28 -10q83 -35 83 -89l-2 -50q-23 -65 -108 -130q-61 -41 -99 -52l-60 -11l25 29q85 55 143 117q55 53 46 105q-2 20 -89 35q-287 -89 -452 -238l-66 -60l-71 -80l-50 -77q15 -20 128 -63l52 -19q181 -55 216 -172v-19q8 -45 -118.5 -195.5t-327.5 -345.5
q-63 -68 -477 -454l29 13q208 127 473 253q255 113 410 156q76 23 136 30q76 14 142 14q119 -4 119 -60h-7q-73 9 -116 6q-114 -5 -246 -40q-269 -76 -799 -370q-81 -50 -147 -74q-65 0 -65 74l32 54q151 139 391 365q84 81 205 199q108 109 202 221q69 76 95 128
q11 25 -14 67l-37 42q-79 57 -270 116l-42 21q-38 25 -38 57l31 56q54 73 117 136q74 79 200.5 159.5t299.5 140.5q52 12 98 15zM880 1658l21 -4q39 -38 137 -146l24 -41l-44 26l-135 86l-146 -91l-41 -19l30 35q87 98 154 154z" />
    <glyph glyph-name="Edieresis" unicode="&#xcb;" horiz-adv-x="1158" 
d="M1045 1308l28 -10q83 -35 83 -89l-2 -50q-23 -65 -108 -130q-61 -41 -99 -52l-60 -11l25 29q85 55 143 117q55 53 46 105q-2 20 -89 35q-287 -89 -452 -238l-66 -60l-71 -80l-50 -77q15 -20 128 -63l52 -19q181 -55 216 -172v-19q8 -45 -118.5 -195.5t-327.5 -345.5
q-63 -68 -477 -454l29 13q208 127 473 253q255 113 410 156q76 23 136 30q76 14 142 14q119 -4 119 -60h-7q-73 9 -116 6q-114 -5 -246 -40q-269 -76 -799 -370q-81 -50 -147 -74q-65 0 -65 74l32 54q151 139 391 365q84 81 205 199q108 109 202 221q69 76 95 128
q11 25 -14 67l-37 42q-79 57 -270 116l-42 21q-38 25 -38 57l31 56q54 73 117 136q74 79 200.5 159.5t299.5 140.5q52 12 98 15zM726 1624l43 -9q50 -36 42 -91l-24 -7l-11 2q-57 15 -60 49zM909 1624l44 -9q50 -36 41 -91l-24 -7l-11 2q-56 15 -60 49z" />
    <glyph glyph-name="Igrave" unicode="&#xcc;" horiz-adv-x="900" 
d="M693 943q62 163 140 289l30 41q-155 -41 -373 -70l-47 4l-39 17l-10 23q417 69 468 85q91 23 148 52l15 4q48 -5 66 -29l-23 -24l-59 -22q-73 -28 -144 -158q-109 -183 -183 -471q-56 -190 -89 -362q-34 -127 -54 -319q107 20 259 40q133 10 183 0q51 -7 104 -29l15 -19
q-30 6 -121 10l-66 -2q-164 -10 -380 -58q-4 -17 -9 -34l-20 -6q-25 15 -26 28q-84 -11 -362 -91l-90 -31l-40 -18q-45 3 -77 18l10 23l46 31l78 26q315 84 435 103q15 211 70 432q71 314 145 517zM876 1447l-50 35q-62 63 -83 87q-46 56 -65 92q6 31 32 49q10 -1 54 -66
q21 -24 43 -64q20 -43 69 -133z" />
    <glyph glyph-name="Iacute" unicode="&#xcd;" horiz-adv-x="900" 
d="M693 943q62 163 140 289l30 41q-155 -41 -373 -70l-47 4l-39 17l-10 23q417 69 468 85q91 23 148 52l15 4q48 -5 66 -29l-23 -24l-59 -22q-73 -28 -144 -158q-109 -183 -183 -471q-56 -190 -89 -362q-34 -127 -54 -319q107 20 259 40q133 10 183 0q51 -7 104 -29l15 -19
q-30 6 -121 10l-66 -2q-164 -10 -380 -58q-4 -17 -9 -34l-20 -6q-25 15 -26 28q-84 -11 -362 -91l-90 -31l-40 -18q-45 3 -77 18l10 23l46 31l78 26q315 84 435 103q15 211 70 432q71 314 145 517zM1039 1608q27 37 51 58q53 58 63 58q23 -22 25 -53q-24 -33 -77 -82
q-48 -45 -118 -99l-54 -28q61 82 110 146z" />
    <glyph glyph-name="Icircumflex" unicode="&#xce;" horiz-adv-x="900" 
d="M693 943q62 163 140 289l30 41q-155 -41 -373 -70l-47 4l-39 17l-10 23q417 69 468 85q91 23 148 52l15 4q48 -5 66 -29l-23 -24l-59 -22q-73 -28 -144 -158q-109 -183 -183 -471q-56 -190 -89 -362q-34 -127 -54 -319q107 20 259 40q133 10 183 0q51 -7 104 -29l15 -19
q-30 6 -121 10l-66 -2q-164 -10 -380 -58q-4 -17 -9 -34l-20 -6q-25 15 -26 28q-84 -11 -362 -91l-90 -31l-40 -18q-45 3 -77 18l10 23l46 31l78 26q315 84 435 103q15 211 70 432q71 314 145 517zM920 1658l21 -4q39 -38 137 -146l24 -41l-44 26l-135 86l-146 -91l-41 -19
l30 35q87 98 154 154z" />
    <glyph glyph-name="Idieresis" unicode="&#xcf;" horiz-adv-x="900" 
d="M693 943q62 163 140 289l30 41q-155 -41 -373 -70l-47 4l-39 17l-10 23q417 69 468 85q91 23 148 52l15 4q48 -5 66 -29l-23 -24l-59 -22q-73 -28 -144 -158q-109 -183 -183 -471q-56 -190 -89 -362q-34 -127 -54 -319q107 20 259 40q133 10 183 0q51 -7 104 -29l15 -19
q-30 6 -121 10l-66 -2q-164 -10 -380 -58q-4 -17 -9 -34l-20 -6q-25 15 -26 28q-84 -11 -362 -91l-90 -31l-40 -18q-45 3 -77 18l10 23l46 31l78 26q315 84 435 103q15 211 70 432q71 314 145 517zM726 1624l43 -9q50 -36 42 -91l-24 -7l-11 2q-57 15 -60 49zM909 1624
l44 -9q50 -36 41 -91l-24 -7l-11 2q-56 15 -60 49z" />
    <glyph glyph-name="Ntilde" unicode="&#xd1;" horiz-adv-x="1187" 
d="M907 -76q-62 192 -131 366q-64 173 -150 235l-29 9q-7 -139 -48 -219q-143 -314 -351 -352q-98 72 -98 135v64q26 215 124 307q110 127 315 127l-10 62q-37 101 -72 122l-9 19l12 28h28q73 0 108 -235q90 -23 172 -140q84 -151 157 -381q0 40 74 346q86 351 140 477
l79 218q91 202 182 370l13 18q46 -23 46 -73v-10q-188 -270 -353 -843q-119 -456 -152 -791q-3 -194 63 -340l43 -50l-61 23q-111 117 -102 394q3 55 10 114zM157 151v-54q13 -64 35 -64l34 1q100 40 166 129q143 204 150 353v28l-54 -3q-134 0 -258 -158q-67 -149 -73 -232
zM738 1211l20 -2q43 0 116 -71l23 -12l21 7q50 17 124 90l10 -33l-15 -31l-15 -17q-32 -33 -81 -56l-41 -9l-37 6l-25 16q-52 46 -85 58h-18q-35 -8 -95 -71q-17 14 -18 38l7 21q39 51 109 66z" />
    <glyph glyph-name="Ograve" unicode="&#xd2;" 
d="M1217 1307q126 -134 174 -301q16 -61 19 -132q-9 -348 -226 -733l-23 -33q-194 -259 -476 -306l-90 -2q-263 -3 -406 185l-22 44q-67 142 -67 311q1 590 459 903l29 12q81 38 148 30q91 -5 130 -48l20 -37l-47 10q-51 20 -133 10l-23 -3q-178 -27 -394 -356
q-112 -216 -120 -487q-9 -310 176 -459l34 -20q118 -52 254 -38q494 46 683 788q25 93 29 201q-6 121 -34 195l-10 24q-64 154 -178 241l-13 9q-58 39 -209 60q-109 -9 -275 -33v12q79 70 284 81q193 -11 307 -128zM951 1447l-50 35q-62 63 -83 87q-46 56 -65 92q6 31 32 49
q10 -1 54 -66q21 -24 43 -64q20 -43 69 -133z" />
    <glyph glyph-name="Oacute" unicode="&#xd3;" 
d="M1217 1307q126 -134 174 -301q16 -61 19 -132q-9 -348 -226 -733l-23 -33q-194 -259 -476 -306l-90 -2q-263 -3 -406 185l-22 44q-67 142 -67 311q1 590 459 903l29 12q81 38 148 30q91 -5 130 -48l20 -37l-47 10q-51 20 -133 10l-23 -3q-178 -27 -394 -356
q-112 -216 -120 -487q-9 -310 176 -459l34 -20q118 -52 254 -38q494 46 683 788q25 93 29 201q-6 121 -34 195l-10 24q-64 154 -178 241l-13 9q-58 39 -209 60q-109 -9 -275 -33v12q79 70 284 81q193 -11 307 -128zM1039 1608q27 37 51 58q53 58 63 58q23 -22 25 -53
q-24 -33 -77 -82q-48 -45 -118 -99l-54 -28q61 82 110 146z" />
    <glyph glyph-name="Ocircumflex" unicode="&#xd4;" 
d="M1217 1307q126 -134 174 -301q16 -61 19 -132q-9 -348 -226 -733l-23 -33q-194 -259 -476 -306l-90 -2q-263 -3 -406 185l-22 44q-67 142 -67 311q1 590 459 903l29 12q81 38 148 30q91 -5 130 -48l20 -37l-47 10q-51 20 -133 10l-23 -3q-178 -27 -394 -356
q-112 -216 -120 -487q-9 -310 176 -459l34 -20q118 -52 254 -38q494 46 683 788q25 93 29 201q-6 121 -34 195l-10 24q-64 154 -178 241l-13 9q-58 39 -209 60q-109 -9 -275 -33v12q79 70 284 81q193 -11 307 -128zM960 1658l21 -4q39 -38 137 -146l24 -41l-44 26l-135 86
l-146 -91l-41 -19l30 35q87 98 154 154z" />
    <glyph glyph-name="Otilde" unicode="&#xd5;" 
d="M1217 1307q126 -134 174 -301q16 -61 19 -132q-9 -348 -226 -733l-23 -33q-194 -259 -476 -306l-90 -2q-263 -3 -406 185l-22 44q-67 142 -67 311q1 590 459 903l29 12q81 38 148 30q91 -5 130 -48l20 -37l-47 10q-51 20 -133 10l-23 -3q-178 -27 -394 -356
q-112 -216 -120 -487q-9 -310 176 -459l34 -20q118 -52 254 -38q494 46 683 788q25 93 29 201q-6 121 -34 195l-10 24q-64 154 -178 241l-13 9q-58 39 -209 60q-109 -9 -275 -33v12q79 70 284 81q193 -11 307 -128zM900 1649l20 -2q43 0 116 -71l23 -12l21 7q50 17 124 90
l10 -33l-15 -31l-15 -17q-32 -33 -81 -56l-41 -9l-37 6l-25 16q-52 46 -85 58h-18q-35 -8 -95 -71q-17 14 -18 38l7 21q39 51 109 66z" />
    <glyph glyph-name="Odieresis" unicode="&#xd6;" 
d="M1217 1307q126 -134 174 -301q16 -61 19 -132q-9 -348 -226 -733l-23 -33q-194 -259 -476 -306l-90 -2q-263 -3 -406 185l-22 44q-67 142 -67 311q1 590 459 903l29 12q81 38 148 30q91 -5 130 -48l20 -37l-47 10q-51 20 -133 10l-23 -3q-178 -27 -394 -356
q-112 -216 -120 -487q-9 -310 176 -459l34 -20q118 -52 254 -38q494 46 683 788q25 93 29 201q-6 121 -34 195l-10 24q-64 154 -178 241l-13 9q-58 39 -209 60q-109 -9 -275 -33v12q79 70 284 81q193 -11 307 -128zM776 1624l43 -9q50 -36 42 -91l-24 -7l-11 2
q-57 15 -60 49zM959 1624l44 -9q50 -36 41 -91l-24 -7l-11 2q-56 15 -60 49z" />
    <glyph glyph-name="multiply" unicode="&#xd7;" horiz-adv-x="800" 
d="M560 720l29 24l33 14l-1 -37l-21 -33l-168 -175q115 -126 173 -202l9 -30l-6 -9q-27 2 -48 25l-161 183l-121 -125q-68 -69 -107 -85l3 47l35 38l155 160q-159 188 -173 203l13 40l34 -21q40 -39 161 -186q75 79 161 169z" />
    <glyph glyph-name="Oslash" unicode="&#xd8;" 
d="M1161 1355q30 -21 56 -48q126 -134 174 -301q16 -61 19 -132q-9 -348 -226 -733l-23 -33q-194 -259 -476 -306l-90 -2q-131 -1 -233 45l-137 -260l-31 -20q-16 6 -13 68q64 124 126 242q-67 43 -118 110l-22 44q-67 142 -67 311q1 590 459 903l29 12q81 38 148 30
q91 -5 130 -48l20 -37l-47 10q-51 20 -133 10l-23 -3q-178 -27 -394 -356q-112 -216 -120 -487q-9 -300 164 -449q434 832 745 1407q-61 27 -177 43q-109 -9 -275 -33v12q79 70 284 81q112 -6 197 -48q44 80 85 155l17 21l22 11q8 -3 18 -52zM387 -108q115 -49 246 -35
q494 46 683 788q25 93 29 201q-6 121 -34 195l-10 24q-62 148 -170 234z" />
    <glyph glyph-name="Ugrave" unicode="&#xd9;" horiz-adv-x="1168" 
d="M1091 1453l52 -36q15 -68 15 -93q-23 -554 -139 -985l-9 -36q-105 -351 -260 -470l-21 -16q-103 -86 -241 -87h-8q-258 -5 -341 431l-3 16q-29 69 -36 388v118q0 355 121 700q18 36 52 54q18 8 38 6q-81 -208 -115 -398q-34 -210 -32 -382v-107l9 -168q19 -295 135 -499
l10 -14q69 -92 168 -81h13q116 10 224 99l20 24q163 193 249 591q88 417 106 815v76zM761 1447l-50 35q-62 63 -83 87q-46 56 -65 92q6 31 32 49q10 -1 54 -66q21 -24 43 -64q20 -43 69 -133z" />
    <glyph glyph-name="Uacute" unicode="&#xda;" horiz-adv-x="1168" 
d="M1091 1453l52 -36q15 -68 15 -93q-23 -554 -139 -985l-9 -36q-105 -351 -260 -470l-21 -16q-103 -86 -241 -87h-8q-258 -5 -341 431l-3 16q-29 69 -36 388v118q0 355 121 700q18 36 52 54q18 8 38 6q-81 -208 -115 -398q-34 -210 -32 -382v-107l9 -168q19 -295 135 -499
l10 -14q69 -92 168 -81h13q116 10 224 99l20 24q163 193 249 591q88 417 106 815v76zM732 1608q27 37 51 58q53 58 63 58q23 -22 25 -53q-24 -33 -77 -82q-48 -45 -118 -99l-54 -28q61 82 110 146z" />
    <glyph glyph-name="Ucircumflex" unicode="&#xdb;" horiz-adv-x="1168" 
d="M1091 1453l52 -36q15 -68 15 -93q-23 -554 -139 -985l-9 -36q-105 -351 -260 -470l-21 -16q-103 -86 -241 -87h-8q-258 -5 -341 431l-3 16q-29 69 -36 388v118q0 355 121 700q18 36 52 54q18 8 38 6q-81 -208 -115 -398q-34 -210 -32 -382v-107l9 -168q19 -295 135 -499
l10 -14q69 -92 168 -81h13q116 10 224 99l20 24q163 193 249 591q88 417 106 815v76zM705 1664l21 -4q39 -38 137 -146l24 -41l-44 26l-135 86l-146 -91l-41 -19l30 35q87 98 154 154z" />
    <glyph glyph-name="Udieresis" unicode="&#xdc;" horiz-adv-x="1168" 
d="M1091 1453l52 -36q15 -68 15 -93q-23 -554 -139 -985l-9 -36q-105 -351 -260 -470l-21 -16q-103 -86 -241 -87h-8q-258 -5 -341 431l-3 16q-29 69 -36 388v118q0 355 121 700q18 36 52 54q18 8 38 6q-81 -208 -115 -398q-34 -210 -32 -382v-107l9 -168q19 -295 135 -499
l10 -14q69 -92 168 -81h13q116 10 224 99l20 24q163 193 249 591q88 417 106 815v76zM566 1624l43 -9q50 -36 42 -91l-24 -7l-11 2q-57 15 -60 49zM749 1624l44 -9q50 -36 41 -91l-24 -7l-11 2q-56 15 -60 49z" />
    <glyph glyph-name="Yacute" unicode="&#xdd;" horiz-adv-x="1332" 
d="M769 1084l4 -10v-10l-4 -7l-26 -44l-21 -45q-34 -87 -41 -185v-7q0 -101 60 -103h7q97 2 511 441q17 84 59 208l10 24q86 152 150 152l9 1q44 -6 55 -43v-8q-1 -46 -55 -135q-71 -110 -181 -236q-207 -716 -222 -763q111 19 215 24l18 -2l8 -8l-25 -16l-22 -8
q-91 -13 -210 -41q-63 -226 -178 -492q-104 -256 -290 -572l-18 -26q-229 -317 -455 -319l-11 -1q-127 20 -192 200l-3 11q-22 93 -21 187l1 16q5 259 162 476l11 13q117 169 335 304q141 84 357 168q129 48 249 75q22 60 115 390q48 153 91 297q-258 -274 -394 -345l-18 -7
q-43 -19 -93 -15l-6 1q-69 19 -85 117v10q-4 122 58 250q33 57 53 69q15 10 33 14zM1337 1200l18 25q124 166 135 202l5 12q0 6 -8 11h-8l-9 -2q-85 -96 -113 -182zM-38 -732l-1 -12q5 -241 107 -336q26 -22 68 -24h7q116 16 289 199q92 104 172 243q223 395 393 909
q-285 -76 -559 -232q-171 -121 -285 -260q-175 -215 -191 -487zM1142 1608q27 37 51 58q53 58 63 58q23 -22 25 -53q-24 -33 -77 -82q-48 -45 -118 -99l-54 -28q61 82 110 146z" />
    <glyph glyph-name="germandbls" unicode="&#xdf;" horiz-adv-x="672" 
d="M30 -121l2 27l61 295q66 328 107 537q24 89 61 153l13 22q99 152 278 174h26q104 -23 104 -80v-11q-21 -158 -204 -331q110 -124 118 -238v-15q1 -280 -300 -467l-68 -18l-23 10q322 204 334 464l-1 21q-8 98 -126 239l9 17q193 198 205 318l-1 16l-23 16l-34 4
q-156 -2 -269 -189l-10 -23l-29 -86q-56 -283 -131 -664l-23 -119q-18 -64 -41 -97l-31 -11z" />
    <glyph glyph-name="agrave" unicode="&#xe0;" horiz-adv-x="624" 
d="M242 144q67 69 100.5 110t47.5 60q2 32 3.5 63t-2 66.5t-28.5 40t-72 -29t-86.5 -83.5t-69.5 -94t-48 -86t-23 -72.5t0.5 -59t41 -19.5t136.5 104zM560 -21l-26 -9q-57 0 -85.5 35t-42.5 112q-8 54 -12 110q-60 -74 -120 -132.5t-102 -85t-82.5 -32t-68 23t-19.5 112.5
q18 106 83.5 201.5t124 149.5t120.5 75.5t94 -19.5q26 -35 27 -90t-2 -123t6 -131t21 -97t33 -41l11 -4h16q20 1 40 9q17 7 48 22l-13 -38q-13 -19 -24 -28t-27 -20zM370 641l-50 35q-62 63 -83 87q-46 56 -65 92q6 31 32 49q10 -1 54 -66q21 -24 43 -64q20 -43 69 -133z
" />
    <glyph glyph-name="aacute" unicode="&#xe1;" horiz-adv-x="624" 
d="M242 144q67 69 100.5 110t47.5 60q2 32 3.5 63t-2 66.5t-28.5 40t-72 -29t-86.5 -83.5t-69.5 -94t-48 -86t-23 -72.5t0.5 -59t41 -19.5t136.5 104zM560 -21l-26 -9q-57 0 -85.5 35t-42.5 112q-8 54 -12 110q-60 -74 -120 -132.5t-102 -85t-82.5 -32t-68 23t-19.5 112.5
q18 106 83.5 201.5t124 149.5t120.5 75.5t94 -19.5q26 -35 27 -90t-2 -123t6 -131t21 -97t33 -41l11 -4h16q20 1 40 9q17 7 48 22l-13 -38q-13 -19 -24 -28t-27 -20zM372 786q27 37 51 58q53 58 63 58q23 -22 25 -53q-24 -33 -77 -82q-48 -45 -118 -99l-54 -28
q61 82 110 146z" />
    <glyph glyph-name="acircumflex" unicode="&#xe2;" horiz-adv-x="624" 
d="M242 144q67 69 100.5 110t47.5 60q2 32 3.5 63t-2 66.5t-28.5 40t-72 -29t-86.5 -83.5t-69.5 -94t-48 -86t-23 -72.5t0.5 -59t41 -19.5t136.5 104zM560 -21l-26 -9q-57 0 -85.5 35t-42.5 112q-8 54 -12 110q-60 -74 -120 -132.5t-102 -85t-82.5 -32t-68 23t-19.5 112.5
q18 106 83.5 201.5t124 149.5t120.5 75.5t94 -19.5q26 -35 27 -90t-2 -123t6 -131t21 -97t33 -41l11 -4h16q20 1 40 9q17 7 48 22l-13 -38q-13 -19 -24 -28t-27 -20zM352 861l17 -4q33 -38 115 -146l20 -41l-37 26l-113 86l-122 -91l-34 -19l25 35q73 98 129 154z" />
    <glyph glyph-name="atilde" unicode="&#xe3;" horiz-adv-x="624" 
d="M242 144q67 69 100.5 110t47.5 60q2 32 3.5 63t-2 66.5t-28.5 40t-72 -29t-86.5 -83.5t-69.5 -94t-48 -86t-23 -72.5t0.5 -59t41 -19.5t136.5 104zM560 -21l-26 -9q-57 0 -85.5 35t-42.5 112q-8 54 -12 110q-60 -74 -120 -132.5t-102 -85t-82.5 -32t-68 23t-19.5 112.5
q18 106 83.5 201.5t124 149.5t120.5 75.5t94 -19.5q26 -35 27 -90t-2 -123t6 -131t21 -97t33 -41l11 -4h16q20 1 40 9q17 7 48 22l-13 -38q-13 -19 -24 -28t-27 -20zM273 830l16 -2q35 0 95 -71l19 -12l17 7q42 17 103 90l8 -33l-12 -31l-13 -17q-26 -33 -67 -56l-33 -9
l-31 6l-20 16q-43 46 -70 58h-15q-29 -8 -78 -71q-14 14 -15 38l5 21q33 51 91 66z" />
    <glyph glyph-name="adieresis" unicode="&#xe4;" horiz-adv-x="624" 
d="M242 144q67 69 100.5 110t47.5 60q2 32 3.5 63t-2 66.5t-28.5 40t-72 -29t-86.5 -83.5t-69.5 -94t-48 -86t-23 -72.5t0.5 -59t41 -19.5t136.5 104zM560 -21l-26 -9q-57 0 -85.5 35t-42.5 112q-8 54 -12 110q-60 -74 -120 -132.5t-102 -85t-82.5 -32t-68 23t-19.5 112.5
q18 106 83.5 201.5t124 149.5t120.5 75.5t94 -19.5q26 -35 27 -90t-2 -123t6 -131t21 -97t33 -41l11 -4h16q20 1 40 9q17 7 48 22l-13 -38q-13 -19 -24 -28t-27 -20zM207 784l43 -9q50 -36 42 -91l-24 -7l-11 2q-57 15 -60 49zM370 784l44 -9q50 -36 41 -91l-24 -7l-11 2
q-56 15 -60 49z" />
    <glyph glyph-name="aring" unicode="&#xe5;" horiz-adv-x="624" 
d="M242 144q67 69 100.5 110t47.5 60q2 32 3.5 63t-2 66.5t-28.5 40t-72 -29t-86.5 -83.5t-69.5 -94t-48 -86t-23 -72.5t0.5 -59t41 -19.5t136.5 104zM560 -21l-26 -9q-57 0 -85.5 35t-42.5 112q-8 54 -12 110q-60 -74 -120 -132.5t-102 -85t-82.5 -32t-68 23t-19.5 112.5
q18 106 83.5 201.5t124 149.5t120.5 75.5t94 -19.5q26 -35 27 -90t-2 -123t6 -131t21 -97t33 -41l11 -4h16q20 1 40 9q17 7 48 22l-13 -38q-13 -19 -24 -28t-27 -20zM343 850h17q74 -11 78 -87v-16q-10 -78 -88 -88l-16 -1q-75 19 -75 94v13q20 77 84 85zM348 804
q-33 -2 -47 -43l1 -12q5 -41 37 -46l13 -1q35 4 48 45v16q-14 38 -42 41h-10z" />
    <glyph glyph-name="ae" unicode="&#xe6;" horiz-adv-x="893" 
d="M242 144q67 69 100.5 110t47.5 60q2 32 3.5 63t-2 66.5t-28.5 40t-72 -29t-86.5 -83.5t-69.5 -94t-48 -86t-23 -72.5t0.5 -59t41 -19.5t136.5 104zM474 335l-26 -74l47 12q151 45 189 130l2 37l-13 28l-25 18l-28 -3q-75 -12 -146 -148zM372 200q-49 -58 -98 -105
q-60 -59 -102 -85.5t-82.5 -32t-68 23t-19.5 112.5q18 106 83.5 201.5t124 149.5t120.5 75.5t94 -19.5q26 -35 27 -90v-14q73 110 165 130l27 -1q45 -5 71 -32l23 -34l7 -43l-1 -36q-32 -91 -148 -149q-96 -40 -152 -48q8 -152 98 -177q87 -3 168 27l49 20l51 26l52 35
l32 21l-18 -58l-35 -35l-38 -28l-38 -19q-108 -51 -227 -44q-127 2 -154 225z" />
    <glyph glyph-name="ccedilla" unicode="&#xe7;" horiz-adv-x="446" 
d="M202 -45q-29 -5 -59 -7q-155 46 -140 221l1 19q68 243 239 335q31 14 65 17q61 -11 96 -63l12 -27q-10 -5 -45 2l-35 19q-30 10 -73 -3q-63 -31 -106.5 -95t-66.5 -119q-49 -112 -15 -177l4 -12q47 -61 87 -58h11q59 4 149 37q66 25 120 57l-11 -32l-28 -44
q-73 -39 -150 -59q-3 -30 4 -55q26 -57 25 -88l-1 -9q-6 -31 -45 -56l-7 -3q-48 -11 -84 12l-5 4q-39 40 -20 91l9 12l8 5q6 -51 25 -65l8 -4q31 -15 53 7l2 8q8 17 -19 72q-10 22 -8 58z" />
    <glyph glyph-name="egrave" unicode="&#xe8;" horiz-adv-x="545" 
d="M268 546l27 -1q45 -5 71 -32l23 -34l7 -43l-1 -36q-32 -91 -148 -149q-96 -40 -152 -48q8 -152 98 -177q87 -3 168 27l49 20l51 26l52 35l32 21l-18 -58l-35 -35l-38 -28l-38 -19q-108 -51 -227 -44q-127 2 -154 225l-18 6q-16 20 -17 50l35 2q21 85 66 159
q74 113 167 133zM126 335l-26 -74l47 12q151 45 189 130l2 37l-13 28l-25 18l-28 -3q-75 -12 -146 -148zM300 641l-50 35q-62 63 -83 87q-46 56 -65 92q6 31 32 49q10 -1 54 -66q21 -24 43 -64q20 -43 69 -133z" />
    <glyph glyph-name="eacute" unicode="&#xe9;" horiz-adv-x="545" 
d="M268 546l27 -1q45 -5 71 -32l23 -34l7 -43l-1 -36q-32 -91 -148 -149q-96 -40 -152 -48q8 -152 98 -177q87 -3 168 27l49 20l51 26l52 35l32 21l-18 -58l-35 -35l-38 -28l-38 -19q-108 -51 -227 -44q-127 2 -154 225l-18 6q-16 20 -17 50l35 2q21 85 66 159
q74 113 167 133zM126 335l-26 -74l47 12q151 45 189 130l2 37l-13 28l-25 18l-28 -3q-75 -12 -146 -148zM302 786q27 37 51 58q53 58 63 58q23 -22 25 -53q-24 -33 -77 -82q-48 -45 -118 -99l-54 -28q61 82 110 146z" />
    <glyph glyph-name="ecircumflex" unicode="&#xea;" horiz-adv-x="545" 
d="M268 546l27 -1q45 -5 71 -32l23 -34l7 -43l-1 -36q-32 -91 -148 -149q-96 -40 -152 -48q8 -152 98 -177q87 -3 168 27l49 20l51 26l52 35l32 21l-18 -58l-35 -35l-38 -28l-38 -19q-108 -51 -227 -44q-127 2 -154 225l-18 6q-16 20 -17 50l35 2q21 85 66 159
q74 113 167 133zM126 335l-26 -74l47 12q151 45 189 130l2 37l-13 28l-25 18l-28 -3q-75 -12 -146 -148zM252 861l17 -4q33 -38 115 -146l20 -41l-37 26l-113 86l-122 -91l-34 -19l25 35q73 98 129 154z" />
    <glyph glyph-name="edieresis" unicode="&#xeb;" horiz-adv-x="545" 
d="M268 546l27 -1q45 -5 71 -32l23 -34l7 -43l-1 -36q-32 -91 -148 -149q-96 -40 -152 -48q8 -152 98 -177q87 -3 168 27l49 20l51 26l52 35l32 21l-18 -58l-35 -35l-38 -28l-38 -19q-108 -51 -227 -44q-127 2 -154 225l-18 6q-16 20 -17 50l35 2q21 85 66 159
q74 113 167 133zM126 335l-26 -74l47 12q151 45 189 130l2 37l-13 28l-25 18l-28 -3q-75 -12 -146 -148zM137 784l43 -9q50 -36 42 -91l-24 -7l-11 2q-57 15 -60 49zM300 784l44 -9q50 -36 41 -91l-24 -7l-11 2q-56 15 -60 49z" />
    <glyph glyph-name="igrave" unicode="&#xec;" horiz-adv-x="295" 
d="M23 17l-3 40l61 295l41 217q28 0 53 -74l-58 -274l-34 -173l49 31q32 21 139 101l3 -10l-85 -105q-56 -75 -103 -99h-24q-26 13 -39 51zM172 641l-50 35q-62 63 -83 87q-46 56 -65 92q6 31 32 49q10 -1 54 -66q21 -24 43 -64q20 -43 69 -133z" />
    <glyph glyph-name="iacute" unicode="&#xed;" horiz-adv-x="295" 
d="M23 17l-3 40l61 295l41 217q28 0 53 -74l-58 -274l-34 -173l49 31q32 21 139 101l3 -10l-85 -105q-56 -75 -103 -99h-24q-26 13 -39 51zM275 786q27 37 51 58q53 58 63 58q23 -22 25 -53q-24 -33 -77 -82q-48 -45 -118 -99l-54 -28q61 82 110 146z" />
    <glyph glyph-name="icircumflex" unicode="&#xee;" horiz-adv-x="295" 
d="M23 17l-3 40l61 295l41 217q28 0 53 -74l-58 -274l-34 -173l49 31q32 21 139 101l3 -10l-85 -105q-56 -75 -103 -99h-24q-26 13 -39 51zM162 861l17 -4q33 -38 115 -146l20 -41l-37 26l-113 86l-122 -91l-34 -19l25 35q73 98 129 154z" />
    <glyph glyph-name="idieresis" unicode="&#xef;" horiz-adv-x="295" 
d="M23 17l-3 40l61 295l41 217q28 0 53 -74l-58 -274l-34 -173l49 31q32 21 139 101l3 -10l-85 -105q-56 -75 -103 -99h-24q-26 13 -39 51zM70 773l19 3l30 -35l12 -45q-12 -21 -34 -29l-24 21q-11 16 -20 60l9 16zM190 773l19 3l30 -35l12 -45q-12 -21 -34 -29l-24 21
q-11 16 -20 60l9 16z" />
    <glyph glyph-name="ntilde" unicode="&#xf1;" horiz-adv-x="544" 
d="M347 456l-42 -21q-86 -44 -176 -147l-77 -306l-20 -3q-24 32 -32 82q39 112 73 292q12 67 -7 115l10 42l28 -8q29 -22 44 -69l-2 -38q118 111 224 123q51 2 75 -38q12 -19 11 -59l-5 -53q-10 -57 -37 -218q-9 -45 -8 -69q2 -34 23 -41l11 -4h11q20 1 40 8l43 22l-11 -35
q-13 -18 -24 -27t-27 -20l-25 -6q-41 -3 -71 22q-13 13 -23 31q-15 36 -10 63l1 26q5 24 25 144q15 66 24 137q1 56 -23 56zM203 830l16 -2q35 0 95 -71l19 -12l17 7q42 17 103 90l8 -33l-12 -31l-13 -17q-26 -33 -67 -56l-33 -9l-31 6l-20 16q-43 46 -70 58h-15
q-29 -8 -78 -71q-14 14 -15 38l5 21q33 51 91 66z" />
    <glyph glyph-name="ograve" unicode="&#xf2;" horiz-adv-x="553" 
d="M315 545q159 -73 178 -210q-8 -218 -184 -356q-84 -32 -145 -32q-161 51 -161 192l3 40q22 223 237 360zM67 156v-28q13 -72 90 -126h60l51 19l44 37q115 120 121 268l-25 66l-25 41q-51 42 -98 45l-68 -29q-150 -144 -150 -293zM370 641l-50 35q-62 63 -83 87
q-46 56 -65 92q6 31 32 49q10 -1 54 -66q21 -24 43 -64q20 -43 69 -133z" />
    <glyph glyph-name="oacute" unicode="&#xf3;" horiz-adv-x="553" 
d="M315 545q159 -73 178 -210q-8 -218 -184 -356q-84 -32 -145 -32q-161 51 -161 192l3 40q22 223 237 360zM67 156v-28q13 -72 90 -126h60l51 19l44 37q115 120 121 268l-25 66l-25 41q-51 42 -98 45l-68 -29q-150 -144 -150 -293zM372 786q27 37 51 58q53 58 63 58
q23 -22 25 -53q-24 -33 -77 -82q-48 -45 -118 -99l-54 -28q61 82 110 146z" />
    <glyph glyph-name="ocircumflex" unicode="&#xf4;" horiz-adv-x="553" 
d="M315 545q159 -73 178 -210q-8 -218 -184 -356q-84 -32 -145 -32q-161 51 -161 192l3 40q22 223 237 360zM67 156v-28q13 -72 90 -126h60l51 19l44 37q115 120 121 268l-25 66l-25 41q-51 42 -98 45l-68 -29q-150 -144 -150 -293zM272 861l17 -4q33 -38 115 -146l20 -41
l-37 26l-113 86l-122 -91l-34 -19l25 35q73 98 129 154z" />
    <glyph glyph-name="otilde" unicode="&#xf5;" horiz-adv-x="553" 
d="M315 545q159 -73 178 -210q-8 -218 -184 -356q-84 -32 -145 -32q-161 51 -161 192l3 40q22 223 237 360zM67 156v-28q13 -72 90 -126h60l51 19l44 37q115 120 121 268l-25 66l-25 41q-51 42 -98 45l-68 -29q-150 -144 -150 -293zM193 830l16 -2q35 0 95 -71l19 -12l17 7
q42 17 103 90l8 -33l-12 -31l-13 -17q-26 -33 -67 -56l-33 -9l-31 6l-20 16q-43 46 -70 58h-15q-29 -8 -78 -71q-14 14 -15 38l5 21q33 51 91 66z" />
    <glyph glyph-name="odieresis" unicode="&#xf6;" horiz-adv-x="553" 
d="M315 545q159 -73 178 -210q-8 -218 -184 -356q-84 -32 -145 -32q-161 51 -161 192l3 40q22 223 237 360zM67 156v-28q13 -72 90 -126h60l51 19l44 37q115 120 121 268l-25 66l-25 41q-51 42 -98 45l-68 -29q-150 -144 -150 -293zM167 784l43 -9q50 -36 42 -91l-24 -7
l-11 2q-57 15 -60 49zM330 784l44 -9q50 -36 41 -91l-24 -7l-11 2q-56 15 -60 49z" />
    <glyph glyph-name="divide" unicode="&#xf7;" horiz-adv-x="800" 
d="M380 560h93q76 -1 157 -6l22 -10l1 -13q-16 -13 -37 -18l-219 1q-203 -3 -220 -3l-18 25l25 18q51 5 196 6zM434 732q-5 -28 -21 -42h-17q-19 6 -26 37l1 24q13 28 46 17q19 -18 17 -36zM434 344q-5 -28 -21 -42h-17q-19 6 -26 37l1 24q13 28 46 17q19 -18 17 -36z" />
    <glyph glyph-name="oslash" unicode="&#xf8;" horiz-adv-x="553" 
d="M325 469q-20 8 -40 9l-68 -29q-150 -144 -150 -293v-28q7 -39 33 -73q86 164 225 414zM378 437l-230 -428q4 -4 9 -7h60l51 19l44 37q115 120 121 268l-25 66l-25 41q-3 2 -5 4zM69 -4q-66 53 -66 143l3 40q22 223 237 360l72 6q21 -10 40 -21q18 31 36 64l17 21l22 11
q8 -3 18 -52l-42 -79q74 -63 87 -154q-8 -218 -184 -356q-84 -32 -145 -32q-22 7 -41 16l-58 -109l-31 -20q-16 6 -13 68q21 41 48 94z" />
    <glyph glyph-name="ugrave" unicode="&#xf9;" horiz-adv-x="585" 
d="M362 210l-5 -13q-108 -173 -203 -216l-27 -9l-35 -3q-89 10 -92 161q31 245 118 423q23 -14 41 -61q-86 -229 -91 -393l7 -40l24 -30l31 5l33 20q186 158 247 476q51 -26 51 -69q-46 -129 -43 -221q-3 -96 20 -157q11 -38 43 -49h16q20 1 40 9q17 7 48 22l-13 -38
q-13 -19 -24 -28t-27 -20l-26 -9q-41 -3 -76 34t-47 107t-10 99zM370 641l-50 35q-62 63 -83 87q-46 56 -65 92q6 31 32 49q10 -1 54 -66q21 -24 43 -64q20 -43 69 -133z" />
    <glyph glyph-name="uacute" unicode="&#xfa;" horiz-adv-x="585" 
d="M362 210l-5 -13q-108 -173 -203 -216l-27 -9l-35 -3q-89 10 -92 161q31 245 118 423q23 -14 41 -61q-86 -229 -91 -393l7 -40l24 -30l31 5l33 20q186 158 247 476q51 -26 51 -69q-46 -129 -43 -221q-3 -96 20 -157q11 -38 43 -49h16q20 1 40 9q17 7 48 22l-13 -38
q-13 -19 -24 -28t-27 -20l-26 -9q-41 -3 -76 34t-47 107t-10 99zM372 786q27 37 51 58q53 58 63 58q23 -22 25 -53q-24 -33 -77 -82q-48 -45 -118 -99l-54 -28q61 82 110 146z" />
    <glyph glyph-name="ucircumflex" unicode="&#xfb;" horiz-adv-x="585" 
d="M362 210l-5 -13q-108 -173 -203 -216l-27 -9l-35 -3q-89 10 -92 161q31 245 118 423q23 -14 41 -61q-86 -229 -91 -393l7 -40l24 -30l31 5l33 20q186 158 247 476q51 -26 51 -69q-46 -129 -43 -221q-3 -96 20 -157q11 -38 43 -49h16q20 1 40 9q17 7 48 22l-13 -38
q-13 -19 -24 -28t-27 -20l-26 -9q-41 -3 -76 34t-47 107t-10 99zM292 861l17 -4q33 -38 115 -146l20 -41l-37 26l-113 86l-122 -91l-34 -19l25 35q73 98 129 154z" />
    <glyph glyph-name="udieresis" unicode="&#xfc;" horiz-adv-x="585" 
d="M362 210l-5 -13q-108 -173 -203 -216l-27 -9l-35 -3q-89 10 -92 161q31 245 118 423q23 -14 41 -61q-86 -229 -91 -393l7 -40l24 -30l31 5l33 20q186 158 247 476q51 -26 51 -69q-46 -129 -43 -221q-3 -96 20 -157q11 -38 43 -49h16q20 1 40 9q17 7 48 22l-13 -38
q-13 -19 -24 -28t-27 -20l-26 -9q-41 -3 -76 34t-47 107t-10 99zM167 784l43 -9q50 -36 42 -91l-24 -7l-11 2q-57 15 -60 49zM330 784l44 -9q50 -36 41 -91l-24 -7l-11 2q-56 15 -60 49z" />
    <glyph glyph-name="yacute" unicode="&#xfd;" horiz-adv-x="548" 
d="M425 450l70 138q17 0 33 -59l-69 -141l-63 -148q-193 -428 -445 -1055l-46 -113q-13 34 -15 63q63 267 352 914l75 156q-68 -105 -125 -148l-23 -4q-27 14 -50 54q-40 145 -60.5 224t-46.5 122l20 46l21 16q23 -28 46 -99l37 -127l36 -144l7 -16q155 151 246 321z
M372 786q27 37 51 58q53 58 63 58q23 -22 25 -53q-24 -33 -77 -82q-48 -45 -118 -99l-54 -28q61 82 110 146z" />
    <glyph glyph-name="ydieresis" unicode="&#xff;" horiz-adv-x="548" 
d="M425 450l70 138q17 0 33 -59l-69 -141l-63 -148q-193 -428 -445 -1055l-46 -113q-13 34 -15 63q63 267 352 914l75 156q-68 -105 -125 -148l-23 -4q-27 14 -50 54q-40 145 -60.5 224t-46.5 122l20 46l21 16q23 -28 46 -99l37 -127l36 -144l7 -16q155 151 246 321z
M167 784l43 -9q50 -36 42 -91l-24 -7l-11 2q-57 15 -60 49zM330 784l44 -9q50 -36 41 -91l-24 -7l-11 2q-56 15 -60 49z" />
    <glyph glyph-name="Ccaron" unicode="&#x10c;" horiz-adv-x="1297" 
d="M1173 1500q103 -14 124 -112l-1 -23q-21 -62 -58 -69l-50 -13l20 27q16 27 23 57l-4 22q-29 55 -104 44q-322 -66 -587 -369l-15 -17q-326 -379 -358 -846q14 -239 185 -276l15 -2q343 8 718 183q94 42 181 89l-10 -19q0 -14 -138 -103q-76 -44 -115 -62
q-220 -96 -358 -116q-136 -25 -264 -28h-10q-243 7 -267 345v31q33 353 229 655l11 19q109 167 303 344l35 27q248 194 495 212zM651 1697l-30 35l41 -19l146 -91l135 86l44 26l-24 -41q-98 -108 -137 -146l-21 -4q-67 56 -154 154z" />
    <glyph glyph-name="ccaron" unicode="&#x10d;" horiz-adv-x="446" 
d="M90 254q-49 -112 -15 -177l4 -12q47 -61 87 -58h11q59 4 149 37q66 25 120 57l-11 -32l-28 -44q-126 -68 -264 -77q-155 46 -140 221l1 19q68 243 239 335q31 14 65 17q61 -11 96 -63l12 -27q-10 -5 -45 2l-35 19q-30 10 -73 -3q-63 -31 -106.5 -95t-66.5 -119zM95 819
l-30 35l41 -19l146 -91l135 86l44 26l-24 -41q-98 -108 -137 -146l-21 -4q-67 56 -154 154z" />
    <glyph glyph-name="Dcaron" unicode="&#x10e;" horiz-adv-x="1606" 
d="M707 1257q1 25 22 20q15 -2 37 -39l2 -6l-3 -12q-69 -348 -151 -766l-106 -534l-23 -105l-27 -30q-12 23 -17 48q0 36 2 69l2 27l133 656q80 396 123 619q6 22 6 53zM1010 1423q358 -18 502 -233q94 -138 88 -350l-2 -25q-50 -552 -717 -973l-21 -17q-289 -157 -488 -200
q-113 -22 -209 -18q-117 8 -154 61l-9 33l50 -17q130 -42 335 7q179 50 424 183l33 20q622 393 694 906l3 40q-5 340 -263 465q-138 60 -318 57h-23q-318 -6 -580 -132l-9 -6q-123 -69 -183 -175l-5 -23l5 -32l32 -35l-28 -8l-32 13q-31 12 -36 65l1 29q57 162 360 283
q235 85 550 82zM969 1697l-30 35l41 -19l146 -91l135 86l44 26l-24 -41q-98 -108 -137 -146l-21 -4q-67 56 -154 154z" />
    <glyph glyph-name="dcaron" unicode="&#x10f;" horiz-adv-x="563" 
d="M64 139q5 -36 25 -64q15 -18 41 -28q24 -6 56 5q45 10 91 61q41 42 74 94q26 90 36 188q-39 61 -122 83l-36 -5q-36 -8 -87 -56q-67 -66 -78 -155q-10 -59 0 -123zM263 31q-46 -41 -110 -48h-18q-123 22 -134 189q-14 242 188 347l39 14l35 2q69 -10 139 -74
q70 325 99 473q25 126 41 200h9q30 -39 36 -85q-93 -452 -158 -792l-9 -73q-9 -73 7 -101q17 -43 38 -50l11 -4h16q20 1 35 5q22 8 53 26l-13 -38q-20 -36 -77 -49q-57 1 -95 50q-32 38 -37 100q-39 -49 -95 -92zM390 1373l-30 35l41 -19l146 -91l135 86l44 26l-24 -41
q-98 -108 -137 -146l-21 -4q-67 56 -154 154z" />
    <glyph glyph-name="Ecaron" unicode="&#x11a;" horiz-adv-x="1158" 
d="M1045 1308l28 -10q83 -35 83 -89l-2 -50q-23 -65 -108 -130q-61 -41 -99 -52l-60 -11l25 29q85 55 143 117q55 53 46 105q-2 20 -89 35q-287 -89 -452 -238l-66 -60l-71 -80l-50 -77q15 -20 128 -63l52 -19q181 -55 216 -172v-19q8 -45 -118.5 -195.5t-327.5 -345.5
q-63 -68 -477 -454l29 13q208 127 473 253q255 113 410 156q76 23 136 30q76 14 142 14q119 -4 119 -60h-7q-73 9 -116 6q-114 -5 -246 -40q-269 -76 -799 -370q-81 -50 -147 -74q-65 0 -65 74l32 54q151 139 391 365q84 81 205 199q108 109 202 221q69 76 95 128
q11 25 -14 67l-37 42q-79 57 -270 116l-42 21q-38 25 -38 57l31 56q54 73 117 136q74 79 200.5 159.5t299.5 140.5q52 12 98 15zM726 1621l-30 35l41 -19l146 -91l135 86l44 26l-24 -41q-98 -108 -137 -146l-21 -4q-67 56 -154 154z" />
    <glyph glyph-name="ecaron" unicode="&#x11b;" horiz-adv-x="545" 
d="M268 546l27 -1q45 -5 71 -32l23 -34l7 -43l-1 -36q-32 -91 -148 -149q-96 -40 -152 -48q8 -152 98 -177q87 -3 168 27l49 20l51 26l52 35l32 21l-18 -58l-35 -35l-38 -28l-38 -19q-108 -51 -227 -44q-127 2 -154 225l-18 6q-16 20 -17 50l35 2q21 85 66 159
q74 113 167 133zM126 335l-26 -74l47 12q151 45 189 130l2 37l-13 28l-25 18l-28 -3q-75 -12 -146 -148zM93 819l-30 35l41 -19l146 -91l135 86l44 26l-24 -41q-98 -108 -137 -146l-21 -4q-67 56 -154 154z" />
    <glyph glyph-name="Gbreve" unicode="&#x11e;" horiz-adv-x="1350" 
d="M1173 1500q103 -14 124 -112l-1 -23q-21 -62 -58 -69l-50 -13l20 27q16 27 23 57l-4 22q-29 55 -104 44q-322 -66 -587 -369l-15 -17q-326 -379 -358 -846q14 -239 185 -276l15 -2q343 8 652 157q52 264 69 350q-291 -68 -354 -99q-58 2 -58 47q54 40 422 112l15 75
q19 86 41 145q33 -22 35 -80q-4 -31 -26 -129q104 18 194 18l22 -6l-21 -19q-162 -35 -206 -49l-67 -339q94 42 181 89l-10 -19q0 -14 -185 -134l-97 -500l-12 -43l-25 -53q-16 21 -17 92l4 50l79 423q-220 -96 -358 -116q-136 -25 -264 -28h-10q-243 7 -267 345v31
q33 353 229 655l11 19q109 167 303 344l35 27q248 194 495 212zM1012 1732q-40 -165 -217 -171q-168 15 -188 162h26q54 -88 148 -98h35q114 13 170 108z" />
    <glyph glyph-name="gbreve" unicode="&#x11f;" horiz-adv-x="620" 
d="M486 624q45 4 72 -82q3 -72 -54 -165q-20 -43 -103 -133l-14 -13q-15 -90 -24 -180q94 24 173 34l89 10q20 -1 45 -3q25 -4 36 -17q-29 -5 -83 -14q-166 -33 -266 -72q-37 -363 -88 -543q-20 -92 -65 -161q-39 -66 -116 -93q-36 -8 -75 13q-40 27 -75 109l-50 83
q-63 103 -169 217q-13 15 -18 39q-5 16 0 29q9 43 68 93q87 63 143 89q191 93 373 160l14 6q13 106 22 159q-75 -43 -139 -47q-68 -2 -104 29l-8 8q-40 36 -36 100q0 80 77 161q80 67 165 93q36 15 65 15q23 0 50 -30q20 51 45 75q18 23 50 31zM403 331q14 18 36 50
q63 88 63 158q0 13 -9 13q-29 1 -54 -75q-21 -88 -36 -146zM88 264l3 -18q23 -51 78 -50q75 2 165 68q10 73 41 200q-11 18 -26 23q-30 -1 -56 -10q-98 -29 -167 -108q-37 -42 -38 -105zM-143 -241q-87 -64 -99 -101l4 -8q34 -40 104 -120q45 -58 69 -97q45 -74 80 -145
q18 -29 49 -35q30 1 64 35t59 110q30 78 66 287q22 128 39 279q-158 -58 -306 -130q-71 -35 -129 -75zM465 848q-40 -165 -167 -171q-118 15 -138 162h26q54 -88 98 -98h35q64 13 120 108z" />
    <glyph glyph-name="Idotaccent" unicode="&#x130;" horiz-adv-x="900" 
d="M693 943q62 163 140 289l30 41q-155 -41 -373 -70l-47 4l-39 17l-10 23q417 69 468 85q91 23 148 52l15 4q48 -5 66 -29l-23 -24l-59 -22q-73 -28 -144 -158q-109 -183 -183 -471q-56 -190 -89 -362q-34 -127 -54 -319q107 20 259 40q133 10 183 0q51 -7 104 -29l15 -19
q-30 6 -121 10l-66 -2q-164 -10 -380 -58q-4 -17 -9 -34l-20 -6q-25 15 -26 28q-84 -11 -362 -91l-90 -31l-40 -18q-45 3 -77 18l10 23l46 31l78 26q315 84 435 103q15 211 70 432q71 314 145 517zM914 1651l40 -10l42 -49l17 -63q-17 -30 -47 -41l-34 30q-16 22 -28 84
l-2 36z" />
    <glyph glyph-name="dotlessi" unicode="&#x131;" horiz-adv-x="295" 
d="M23 17l-3 40l61 295l41 217q28 0 53 -74l-58 -274l-34 -173l49 31q32 21 139 101l3 -10l-85 -105q-56 -75 -103 -99h-24q-26 13 -39 51z" />
    <glyph glyph-name="Lacute" unicode="&#x139;" horiz-adv-x="1344" 
d="M893 1507q16 0 53 -45q3 -94 -201 -335q-109 -444 -167 -676q-57 -234 -85 -316q74 -140 244 -169q137 -7 271 23q144 36 237 39l55 -14l33 -35l1 -13q-49 12 -95 8h-22q-107 -16 -206 -41q-114 -25 -240 -26q-162 4 -289 137l-20 25l-9 -19q-112 -170 -230 -219l-34 -1
q-98 0 -88 267q19 175 164 258l25 6h17q63 0 138 -150q51 171 154 601q33 134 62 254q-13 -8 -37 -18q-115 -53 -161 -55l-37 20l31 15q182 79 243 157q138 292 193 322zM170 -88q9 -19 26 -25l17 1q114 71 190 203l18 44q-82 164 -101 166l-22 7l-25 -6l-32 -22l-26 -22
l-29 -50q-51 -125 -26 -257zM810 1608q27 37 51 58q53 58 63 58q23 -22 25 -53q-24 -33 -77 -82q-48 -45 -118 -99l-54 -28q61 82 110 146z" />
    <glyph glyph-name="lacute" unicode="&#x13a;" horiz-adv-x="295" 
d="M23 17l-3 40l61 295q82 408 126 633l27 149q28 0 49 -70q-75 -379 -166 -843l-34 -173l49 31q32 21 139 101l3 -10l-85 -105q-56 -75 -103 -99h-24q-26 13 -39 51zM368 1358q27 37 51 58q53 58 63 58q23 -22 25 -53q-24 -33 -77 -82q-48 -45 -118 -99l-54 -28
q61 82 110 146z" />
    <glyph glyph-name="Lcaron" unicode="&#x13d;" horiz-adv-x="1344" 
d="M893 1507q16 0 53 -45q3 -94 -201 -335q-109 -444 -167 -676q-57 -234 -85 -316q74 -140 244 -169q137 -7 271 23q144 36 237 39l55 -14l33 -35l1 -13q-49 12 -95 8h-22q-107 -16 -206 -41q-114 -25 -240 -26q-162 4 -289 137l-20 25l-9 -19q-112 -170 -230 -219l-34 -1
q-98 0 -88 267q19 175 164 258l25 6h17q63 0 138 -150q51 171 154 601q33 134 62 254q-13 -8 -37 -18q-115 -53 -161 -55l-37 20l31 15q182 79 243 157q138 292 193 322zM170 -88q9 -19 26 -25l17 1q114 71 190 203l18 44q-82 164 -101 166l-22 7l-25 -6l-32 -22l-26 -22
l-29 -50q-51 -125 -26 -257zM578 1697l-30 35l41 -19l146 -91l135 86l44 26l-24 -41q-98 -108 -137 -146l-21 -4q-67 56 -154 154z" />
    <glyph glyph-name="lcaron" unicode="&#x13e;" horiz-adv-x="295" 
d="M23 17l-3 40l61 295q82 408 126 633l27 149q28 0 49 -70q-75 -379 -166 -843l-34 -173l49 31q32 21 139 101l3 -10l-85 -105q-56 -75 -103 -99h-24q-26 13 -39 51zM104 1373l-30 35l41 -19l146 -91l135 86l44 26l-24 -41q-98 -108 -137 -146l-21 -4q-67 56 -154 154z" />
    <glyph glyph-name="Ncaron" unicode="&#x147;" horiz-adv-x="1187" 
d="M907 -76q-62 192 -131 366q-64 173 -150 235l-29 9q-7 -139 -48 -219q-143 -314 -351 -352q-98 72 -98 135v64q26 215 124 307q110 127 315 127l-10 62q-37 101 -72 122l-9 19l12 28h28q73 0 108 -235q90 -23 172 -140q84 -151 157 -381q0 40 74 346q86 351 140 477
l79 218q91 202 182 370l13 18q46 -23 46 -73v-10q-188 -270 -353 -843q-119 -456 -152 -791q-3 -194 63 -340l43 -50l-61 23q-111 117 -102 394q3 55 10 114zM157 151v-54q13 -64 35 -64l34 1q100 40 166 129q143 204 150 353v28l-54 -3q-134 0 -258 -158q-67 -149 -73 -232
zM678 1228l-30 35l41 -19l146 -91l135 86l44 26l-24 -41q-98 -108 -137 -146l-21 -4q-67 56 -154 154z" />
    <glyph glyph-name="ncaron" unicode="&#x148;" horiz-adv-x="544" 
d="M347 456l-42 -21q-86 -44 -176 -147l-77 -306l-20 -3q-24 32 -32 82q39 112 73 292q12 67 -7 115l10 42l28 -8q29 -22 44 -69l-2 -38q118 111 224 123q51 2 75 -38q12 -19 11 -59l-5 -53q-10 -57 -37 -218q-9 -45 -8 -69q2 -34 23 -41l11 -4h11q20 1 40 8l43 22l-11 -35
q-13 -18 -24 -27t-27 -20l-25 -6q-41 -3 -71 22q-13 13 -23 31q-15 36 -10 63l1 26q5 24 25 144q15 66 24 137q1 56 -23 56zM120 819l-30 35l41 -19l146 -91l135 86l44 26l-24 -41q-98 -108 -137 -146l-21 -4q-67 56 -154 154z" />
    <glyph glyph-name="OE" unicode="&#x152;" horiz-adv-x="1843" 
d="M1089 150q107 109 201 220q69 76 95 128q11 25 -14 67l-37 42q-22 16 -53 32q-51 -237 -192 -489zM809 -120q-104 -58 -224 -78l-90 -2q-263 -3 -406 185l-22 44q-67 142 -67 311q1 590 459 903l29 12q81 38 148 30q91 -5 130 -48l20 -37l-47 10q-51 20 -133 10l-23 -3
q-178 -27 -394 -356q-112 -216 -120 -487q-9 -310 176 -459l34 -20q118 -52 254 -38q494 46 683 788q3 11 5 22q-65 28 -157 56l-42 21q-38 25 -38 57l31 56q54 73 117 136q31 33 71 67l-2 5q-64 154 -178 241l-13 9q-58 39 -209 60q-109 -9 -275 -33v12q79 70 284 81
q193 -11 307 -128q90 -95 139 -206q36 25 77 52q126 80 299 140q52 12 98 15l28 -10q83 -35 83 -89l-2 -50q-23 -65 -108 -130q-61 -41 -99 -52l-60 -11l25 29q85 55 143 117q55 53 46 105q-2 20 -89 35q-287 -89 -452 -238l-66 -60l-71 -80l-50 -77q15 -20 128 -63l52 -19
q181 -55 216 -172v-19q8 -45 -118.5 -195.5t-327.5 -345.5q-63 -68 -477 -454l29 13q208 127 473 253q255 113 410 156q76 23 136 30q76 14 142 14q119 -4 119 -60h-7q-73 9 -116 6q-114 -5 -246 -40q-269 -76 -799 -370q-81 -50 -147 -74q-65 0 -65 74l32 54
q127 117 317 295z" />
    <glyph glyph-name="oe" unicode="&#x153;" horiz-adv-x="893" 
d="M474 335l-26 -74l47 12q151 45 189 130l2 37l-13 28l-25 18l-28 -3q-75 -12 -146 -148zM420 360l-12 32l-25 41q-51 42 -98 45l-68 -29q-150 -144 -150 -293v-28q13 -72 90 -126h60l51 19l44 37q47 49 76 103q-3 17 -5 35l-18 6q-16 20 -17 50l35 2q14 55 37 106zM408 81
q-39 -56 -99 -102q-84 -32 -145 -32q-161 51 -161 192l3 40q22 223 237 360l72 6q100 -46 144 -117q70 99 157 118l27 -1q45 -5 71 -32l23 -34l7 -43l-1 -36q-32 -91 -148 -149q-96 -40 -152 -48q8 -152 98 -177q87 -3 168 27l49 20l51 26l52 35l32 21l-18 -58l-35 -35
l-38 -28l-38 -19q-108 -51 -227 -44q-89 1 -129 110z" />
    <glyph glyph-name="Racute" unicode="&#x154;" horiz-adv-x="1486" 
d="M776 472q164 -223 289 -398q125 -150 268 -205l14 -5q29 -13 87 -17h14q31 1 66.5 9.5t88.5 27.5l83 37q-16 -33 -48 -65q-94 -68 -215 -65l-33 3q-204 32 -375 247q-131 177 -291 399q-17 -75 -27 -125l-34 -173l-78 -356q-28 -116 -52 -116l-12 38q0 33 14 131l65 312
l57 277l-17 -7q-270 -92 -473 -92q-167 -5 -167 126l7 26q40 56 95 56l32 -6l-14 -14q-69 -24 -69 -85q26 -44 99 -48q281 9 496 100l25 9q2 11 3 15q-64 92 -153 151l-38 26q56 12 80 3q51 -7 111 -70q8 -10 17 -24q60 303 96 485l27 149q28 0 49 -70q-58 -291 -122 -627
l6 -8l61 22q355 144 556 412q90 139 92 227v12q-7 144 -223 203l-56 4q-499 10 -764 -305l-12 -28l-2 -23l2 -17q12 -39 44 -43l12 1l-21 -18l-15 -4l-20 1q-49 30 -49 103l10 33q133 224 439 318q110 36 357 40l45 -2q344 -54 313 -316l-5 -26q-45 -192 -300 -405l-23 -19
q-210 -149 -412 -221zM1202 1658q27 37 51 58q53 58 63 58q23 -22 25 -53q-24 -33 -77 -82q-48 -45 -118 -99l-54 -28q61 82 110 146z" />
    <glyph glyph-name="racute" unicode="&#x155;" horiz-adv-x="451" 
d="M214 404q-48 -36 -74 -96q-28 -76 -81 -286l-17 -70q-36 28 -42 76q29 114 52 203.5t9 200.5l-31 71q2 18 11 34l40 -8q30 -40 43 -103l1 -19l28 25q56 47 114 60l37 3q58 -2 93 -20q30 -26 48 -53l-3 -47l-14 13q-28 24 -57 42q-45 8 -80 9q-38 -13 -77 -35zM275 786
q27 37 51 58q53 58 63 58q23 -22 25 -53q-24 -33 -77 -82q-48 -45 -118 -99l-54 -28q61 82 110 146z" />
    <glyph glyph-name="Rcaron" unicode="&#x158;" horiz-adv-x="1486" 
d="M776 472q164 -223 289 -398q125 -150 268 -205l14 -5q29 -13 87 -17h14q31 1 66.5 9.5t88.5 27.5l83 37q-16 -33 -48 -65q-94 -68 -215 -65l-33 3q-204 32 -375 247q-131 177 -291 399q-17 -75 -27 -125l-34 -173l-78 -356q-28 -116 -52 -116l-12 38q0 33 14 131l65 312
l57 277l-17 -7q-270 -92 -473 -92q-167 -5 -167 126l7 26q40 56 95 56l32 -6l-14 -14q-69 -24 -69 -85q26 -44 99 -48q281 9 496 100l25 9q2 11 3 15q-64 92 -153 151l-38 26q56 12 80 3q51 -7 111 -70q8 -10 17 -24q60 303 96 485l27 149q28 0 49 -70q-58 -291 -122 -627
l6 -8l61 22q355 144 556 412q90 139 92 227v12q-7 144 -223 203l-56 4q-499 10 -764 -305l-12 -28l-2 -23l2 -17q12 -39 44 -43l12 1l-21 -18l-15 -4l-20 1q-49 30 -49 103l10 33q133 224 439 318q110 36 357 40l45 -2q344 -54 313 -316l-5 -26q-45 -192 -300 -405l-23 -19
q-210 -149 -412 -221zM934 1697l-30 35l41 -19l146 -91l135 86l44 26l-24 -41q-98 -108 -137 -146l-21 -4q-67 56 -154 154z" />
    <glyph glyph-name="rcaron" unicode="&#x159;" horiz-adv-x="451" 
d="M214 404q-48 -36 -74 -96q-28 -76 -81 -286l-17 -70q-36 28 -42 76q29 114 52 203.5t9 200.5l-31 71q2 18 11 34l40 -8q30 -40 43 -103l1 -19l28 25q56 47 114 60l37 3q58 -2 93 -20q30 -26 48 -53l-3 -47l-14 13q-28 24 -57 42q-45 8 -80 9q-38 -13 -77 -35zM89 819
l-30 35l41 -19l146 -91l135 86l44 26l-24 -41q-98 -108 -137 -146l-21 -4q-67 56 -154 154z" />
    <glyph glyph-name="Scedilla" unicode="&#x15e;" horiz-adv-x="1160" 
d="M509 -337l-79 -6l-84 9q-158 27 -212 131q-34 62 -34 121q4 100 68 155l24 13q59 31 100 29l31 -18l-27 -7q-55 -11 -103 -62q-24 -32 -33 -55l-8 -49q5 -77 47 -125q62 -65 193 -75q217 6 312 59q238 123 244 277v36q-8 186 -203 568q-117 239 -121 395v32
q13 326 339 371q186 -10 249 -166v-43q35 -154 -172 -313q-21 10 -32 10q173 186 150 292q-20 114 -158 150q-130 7 -247 -107q-71 -98 -63 -258q10 -153 223 -577q93 -208 106 -390q-55 -291 -444 -387q-6 -13 -5 -26q20 -51 56 -118q65 -104 68 -169v-12q0 -28 -28 -58
q-82 -86 -179 -67l-16 4q-57 22 -86 63q-15 25 -16 56l4 20q31 -36 49 -52q67 -43 113 -37l19 3q58 20 79 70l2 12q-13 71 -74 157q-49 81 -54 122z" />
    <glyph glyph-name="scedilla" unicode="&#x15f;" horiz-adv-x="512" 
d="M257 -29q-2 -37 4 -60q26 -57 25 -88l-1 -9q-6 -31 -45 -56l-7 -3q-48 -11 -84 12l-5 4q-39 40 -20 91l9 12l8 5q6 -51 25 -65l8 -4q31 -15 53 7l2 8q8 17 -19 72q-11 20 -8 68q-71 -5 -135 10q-52 17 -81 58q-15 25 -16 56l4 20q31 -36 49 -52q67 -43 117 -41
q57 -4 119 7q61 17 97 63l2 12q-9 34 -45 57l-69 62l-51 45q-80 81 -85 122l4 43q27 82 143 134l23 5l30 1q70 -1 119 -31l21 -16l10 -17l3 -19l1 -21q-42 26 -105 45l-47 3l-35 -5q-107 -61 -104 -116q20 -51 104 -123l60 -55l40 -39q36 -38 40 -71q0 -39 -28 -69
q-43 -39 -86 -53q-22 -5 -44 -9z" />
    <glyph glyph-name="Scaron" unicode="&#x160;" horiz-adv-x="1160" 
d="M160 -27l-8 -49q5 -77 47 -125q62 -65 193 -75q217 6 312 59q238 123 244 277v36q-8 186 -203 568q-117 239 -121 395v32q13 326 339 371q186 -10 249 -166v-43q35 -154 -172 -313q-21 10 -32 10q173 186 150 292q-20 114 -158 150q-130 7 -247 -107q-71 -98 -63 -258
q10 -153 223 -577q93 -208 106 -390q-57 -302 -475 -394l-114 -9l-84 9q-158 27 -212 131q-34 62 -34 121q4 100 68 155l24 13q59 31 100 29l31 -18l-27 -7q-55 -11 -103 -62q-24 -32 -33 -55zM801 1697l-30 35l41 -19l146 -91l135 86l44 26l-24 -41q-98 -108 -137 -146
l-21 -4q-67 56 -154 154z" />
    <glyph glyph-name="scaron" unicode="&#x161;" horiz-adv-x="512" 
d="M415 102q0 -39 -28 -69q-43 -39 -86 -53q-126 -30 -234 -5q-52 17 -81 58q-15 25 -16 56l4 20q31 -36 49 -52q67 -43 117 -41q57 -4 119 7q61 17 97 63l2 12q-9 34 -45 57l-69 62l-51 45q-80 81 -85 122l4 43q27 82 143 134l23 5l30 1q70 -1 119 -31l21 -16l10 -17l3 -19
l1 -21q-42 26 -105 45l-47 3l-35 -5q-107 -61 -104 -116q20 -51 104 -123l60 -55l40 -39q36 -38 40 -71zM150 819l-30 35l41 -19l146 -91l135 86l44 26l-24 -41q-98 -108 -137 -146l-21 -4q-67 56 -154 154z" />
    <glyph glyph-name="Tcaron" unicode="&#x164;" horiz-adv-x="713" 
d="M880 1553l31 1q32 -16 32 -39q-14 -106 -175 -232q-205 -622 -351 -1327q-44 -222 -36 -407l-15 -8q-20 23 -38 212q0 173 139 728q25 113 207 751l-21 -10q-166 -83 -552 -183l-56 -3q-23 7 -45 39q619 175 715 265q84 181 165 213zM390 1621l-30 35l41 -19l146 -91
l135 86l44 26l-24 -41q-98 -108 -137 -146l-21 -4q-67 56 -154 154z" />
    <glyph glyph-name="tcaron" unicode="&#x165;" horiz-adv-x="467" 
d="M251 458q-12 -58 -23 -117l-46 -239l-9 -54l49 31q32 21 139 101l3 -10l-85 -105q-56 -75 -103 -99h-24q-26 13 -39 51l-3 40l61 295q10 52 20 102q-85 -3 -160 -4l-35 15l-11 12l-16 22q22 10 236 18q36 190 50 269l27 149q28 0 51 -70q-34 -168 -70 -348l25 2l123 -3
l28 -9q27 -17 38 -45q-102 1 -226 -4zM116 1158l-30 35l41 -19l146 -91l135 86l44 26l-24 -41q-98 -108 -137 -146l-21 -4q-67 56 -154 154z" />
    <glyph glyph-name="Uring" unicode="&#x16e;" horiz-adv-x="1168" 
d="M1091 1453l52 -36q15 -68 15 -93q-23 -554 -139 -985l-9 -36q-105 -351 -260 -470l-21 -16q-103 -86 -241 -87h-8q-258 -5 -341 431l-3 16q-29 69 -36 388v118q0 355 121 700q18 36 52 54q18 8 38 6q-81 -208 -115 -398q-34 -210 -32 -382v-107l9 -168q19 -295 135 -499
l10 -14q69 -92 168 -81h13q116 10 224 99l20 24q163 193 249 591q88 417 106 815v76zM689 1678h17q74 -11 78 -87v-16q-10 -78 -88 -88l-16 -1q-75 19 -75 94v13q20 77 84 85zM694 1632q-33 -2 -47 -43l1 -12q5 -41 37 -46l13 -1q35 4 48 45v16q-14 38 -42 41h-10z" />
    <glyph glyph-name="uring" unicode="&#x16f;" horiz-adv-x="585" 
d="M362 210l-5 -13q-108 -173 -203 -216l-27 -9l-35 -3q-89 10 -92 161q31 245 118 423q23 -14 41 -61q-86 -229 -91 -393l7 -40l24 -30l31 5l33 20q186 158 247 476q51 -26 51 -69q-46 -129 -43 -221q-3 -96 20 -157q11 -38 43 -49h16q20 1 40 9q17 7 48 22l-13 -38
q-13 -19 -24 -28t-27 -20l-26 -9q-41 -3 -76 34t-47 107t-10 99zM293 850h17q74 -11 78 -87v-16q-10 -78 -88 -88l-16 -1q-75 19 -75 94v13q20 77 84 85zM298 804q-33 -2 -47 -43l1 -12q5 -41 37 -46l13 -1q35 4 48 45v16q-14 38 -42 41h-10z" />
    <glyph glyph-name="Zcaron" unicode="&#x17d;" horiz-adv-x="1800" 
d="M1180 -90q-249 23 -458 85q-126 38 -161 48q-273 -313 -398 -292h-9q-50 35 -47 127l1 25q34 164 127 216l9 7q56 27 123 29h14q49 -4 158 -44q26 23 366 434q-91 -4 -137 43l2 19l31 7q44 -14 109 -10l46 1q409 511 515 624l-31 -13q-501 -170 -718 -173q-84 10 -98 47
l14 12l130 -1q159 1 760 205l41 20l135 116l35 14l28 1q33 -13 33 -25q-65 -63 -176 -130q-199 -194 -581 -688l33 3l146 27l177 38l-4 -14q-15 -15 -107 -50l-94 -26l-144 -31l-58 -8l-386 -464q214 -75 531 -121q18 -3 38 -5q135 -7 267 23q144 36 237 39l55 -14l33 -35
l1 -13q-49 12 -95 8h-22q-107 -16 -206 -41q-114 -25 -238 -21q-12 0 -27 1zM172 -71l-6 -28l-4 -29v-24l6 -25l9 -14q83 0 320 256q-79 27 -122 32h-25q-121 -13 -168 -135zM1066 1528l-30 35l41 -19l146 -91l135 86l44 26l-24 -41q-98 -108 -137 -146l-21 -4
q-67 56 -154 154z" />
    <glyph glyph-name="zcaron" unicode="&#x17e;" horiz-adv-x="542" 
d="M230 292q85 99 150 197l-51 -10q-91 -18 -198 -19q-35 19 -43 41l27 13q73 0 149 9q65 11 142 31l9 -3q16 -5 34 -56q-100 -153 -147 -200l41 4q34 6 92 9v-10l-26 -31l-34 -14q-47 -6 -118 -12q-99 -107 -197 -207q178 33 323 21q83 -5 109 -19l23 -11l24 -23l4 -13
q-126 25 -282 17q-200 -12 -254 -41l-19 13q-15 13 -19 40l24 28q84 88 181 188q-52 -3 -113 -8l8 20q19 26 48 37q43 7 113 9zM116 819l-30 35l41 -19l146 -91l135 86l44 26l-24 -41q-98 -108 -137 -146l-21 -4q-67 56 -154 154z" />
    <glyph glyph-name="endash" unicode="&#x2013;" horiz-adv-x="760" 
d="M542 564q69 -1 141 -7l20 -13l1 -16q-16 -16 -34 -21h-395q-180 -3 -196 -3l-16 30l22 22q50 7 200 8h257z" />
    <glyph glyph-name="emdash" unicode="&#x2014;" horiz-adv-x="1010" 
d="M542 564q319 -1 391 -7l20 -13l1 -16q-16 -16 -34 -21h-645q-180 -3 -196 -3l-16 30l22 22q50 7 200 8h257z" />
    <glyph glyph-name="quoteleft" unicode="&#x2018;" horiz-adv-x="400" 
d="M248 1263h12q12 -4 12 -24q-44 -65 -44 -100q34 0 60 -52q-15 -72 -76 -72q-44 24 -44 76q0 86 80 172z" />
    <glyph glyph-name="quoteright" unicode="&#x2019;" horiz-adv-x="400" 
d="M158 1015h-12q-12 4 -12 24q44 65 44 100q-34 0 -60 52q15 72 76 72q44 -24 44 -76q0 -86 -80 -172z" />
    <glyph glyph-name="quotedblleft" unicode="&#x201c;" horiz-adv-x="600" 
d="M248 1263h12q12 -4 12 -24q-44 -65 -44 -100q34 0 60 -52q-15 -72 -76 -72q-44 24 -44 76q0 86 80 172zM448 1263h12q12 -4 12 -24q-44 -65 -44 -100q34 0 60 -52q-15 -72 -76 -72q-44 24 -44 76q0 86 80 172z" />
    <glyph glyph-name="quotedblright" unicode="&#x201d;" horiz-adv-x="600" 
d="M158 1015h-12q-12 4 -12 24q44 65 44 100q-34 0 -60 52q15 72 76 72q44 -24 44 -76q0 -86 -80 -172zM358 1015h-12q-12 4 -12 24q44 65 44 100q-34 0 -60 52q15 72 76 72q44 -24 44 -76q0 -86 -80 -172z" />
    <glyph glyph-name="ellipsis" unicode="&#x2026;" horiz-adv-x="750" 
d="M229 552q-17 -38 -48 -57h-24q-26 8 -35 50l1 33q26 83 81 68q36 -24 25 -94zM429 552q-17 -38 -48 -57h-24q-26 8 -35 50l1 33q26 83 81 68q36 -24 25 -94zM629 552q-17 -38 -48 -57h-24q-26 8 -35 50l1 33q26 83 81 68q36 -24 25 -94z" />
    <glyph glyph-name="trademark" unicode="&#x2122;" horiz-adv-x="1000" 
d="M500 1484h14q15 -7 15 -16q-6 -45 -80 -99q-93 -262 -159 -560q-20 -94 -17 -172l-7 -4q-9 10 -17 90q0 73 63 308q12 47 95 317l-10 -4q-76 -35 -251 -78l-26 -1q-10 3 -20 17q282 74 325 112q38 76 75 90zM398 891v-23q6 -27 16 -27l15 1q46 17 76 54q65 86 68 149v12
l-25 -1q-61 0 -117 -67q-30 -63 -33 -98zM1006 1461h4q21 -10 21 -31v-4q-95 -100 -174 -356q-56 -199 -68 -334q-2 -82 28 -144l20 -21l-28 10q-50 49 -46 166q7 110 45 256.5t62 199.5q-62 -86 -180 -236l-11 -5l-10 2q-19 59 -58 85l-13 4q-3 -59 -22 -93
q-65 -132 -159 -148q-45 30 -45 57v27q12 91 56 130q50 53 144 53l-5 26q-17 43 -33 52l-4 8l6 12h12q34 0 50 -100q40 -9 78 -59l9 -17q97 119 177 237q84 120 144 223z" />
    <glyph glyph-name="minus" unicode="&#x2212;" horiz-adv-x="800" 
d="M433 566q119 -1 191 -7l20 -13l1 -16q-16 -16 -34 -21h-246q-180 -3 -196 -3l-16 30l22 22q50 7 200 8h58z" />
    <glyph glyph-name="uni2605" unicode="&#x2605;" horiz-adv-x="1200" 
d="M652 1011l46 62q18 -1 35 -32l1 -73l-6 -274q66 -12 273 -62l33 -22l23 -25q-39 -25 -85 -42q-143 -38 -243 -77l-3 -241q0 -57 -7 -85l-33 9q-61 45 -194 220q-87 -39 -232 -108l-49 -16l-10 9q-3 26 8 59l137 236q-185 214 -185 268q19 11 44 11q239 -65 276 -75
q50 62 171 258z" />
    <glyph glyph-name="uni2606" unicode="&#x2606;" horiz-adv-x="1200" 
d="M945 588q-154 31 -277 60l4 284q-67 -120 -167 -243q-209 48 -246 60q83 -84 166 -182q-81 -139 -137 -230l220 107q90 -103 161 -196q-2 129 -1 267zM652 1011l46 62q18 -1 35 -32l1 -73l-6 -274q66 -12 273 -62l33 -22l23 -25q-39 -25 -85 -42q-143 -38 -243 -77
l-3 -241q0 -57 -7 -85l-33 9q-61 45 -194 220q-87 -39 -232 -108l-49 -16l-10 9q-3 26 8 59l137 236q-185 214 -185 268q19 11 44 11q239 -65 276 -75q50 62 171 258z" />
    <glyph glyph-name="uni2661" unicode="&#x2661;" horiz-adv-x="1100" 
d="M257 1032h24q90 -2 222 -133h11q85 90 203 128l21 5q98 0 117 -96l-2 -32q-57 -377 -366 -641q-223 135 -312 529l-5 58q2 171 87 182zM241 854l1 -51q61 -295 222 -443l13 -14q256 253 307 549v34q-2 25 -28 32l-23 -3q-101 -21 -217 -142l-14 -2q-60 67 -168 135l-20 5
q-66 0 -73 -100z" />
    <glyph glyph-name="heart" unicode="&#x2665;" horiz-adv-x="1100" 
d="M257 1032h24q90 -2 222 -133h11q85 90 203 128l21 5q98 0 117 -96l-2 -32q-57 -377 -366 -641q-223 135 -312 529l-5 58q2 171 87 182z" />
    </font>
</defs>
</svg>
